<?xml version="1.0" encoding="utf-8"?>
<!-- Generator: Adobe Illustrator 16.0.0, SVG Export Plug-In . SVG Version: 6.00 Build 0)  -->
<!DOCTYPE svg PUBLIC "-//W3C//DTD SVG 1.1//EN" "http://www.w3.org/Graphics/SVG/1.1/DTD/svg11.dtd">
<svg version="1.1" id="Layer_1" xmlns="http://www.w3.org/2000/svg" xmlns:xlink="http://www.w3.org/1999/xlink" x="0px" y="0px"
	 width="595.28px" height="595.28px" viewBox="0 0 595.28 595.28" enable-background="new 0 0 595.28 595.28" xml:space="preserve">
<radialGradient id="SVGID_1_" cx="302.0127" cy="37837" r="91.0473" gradientTransform="matrix(1 0 0 0.2287 0 -8292)" gradientUnits="userSpaceOnUse">
	<stop  offset="0" style="stop-color:#BDD4DF"/>
	<stop  offset="0.865" style="stop-color:#FFFFFF"/>
</radialGradient>
<path fill="url(#SVGID_1_)" d="M398.057,361.322c0,15.625-43.002,28.295-96.047,28.295c-53.042,0-96.041-12.67-96.041-28.295
	c0-15.624,42.999-28.294,96.041-28.294C355.055,333.028,398.057,345.698,398.057,361.322z"/>
<g>
	<g>
		
			<radialGradient id="SVGID_2_" cx="327.3633" cy="73.6943" r="124.0232" gradientTransform="matrix(0.8078 0 0 0.8078 32.5435 206.0054)" gradientUnits="userSpaceOnUse">
			<stop  offset="0" style="stop-color:#E9E8E8"/>
			<stop  offset="0.6345" style="stop-color:#E6E6E5"/>
			<stop  offset="0.9594" style="stop-color:#E3E2E2"/>
		</radialGradient>
		<path fill="url(#SVGID_2_)" d="M397.174,265.537c0,55.329-44.857,100.183-100.186,100.183
			c-55.331,0-100.188-44.854-100.188-100.183c0-55.333,44.857-100.187,100.188-100.187
			C352.316,165.35,397.174,210.204,397.174,265.537z"/>
		<g>
			<g>
				<defs>
					<path id="SVGID_3_" d="M397.174,265.537c0,55.329-44.857,100.183-100.186,100.183c-55.331,0-100.188-44.854-100.188-100.183
						c0-55.333,44.857-100.187,100.188-100.187C352.316,165.35,397.174,210.204,397.174,265.537z"/>
				</defs>
				<clipPath id="SVGID_4_">
					<use xlink:href="#SVGID_3_"  overflow="visible"/>
				</clipPath>
				<rect x="196.802" y="165.349" clip-path="url(#SVGID_4_)" fill="none" width="200.372" height="200.372"/>
				<path clip-path="url(#SVGID_4_)" fill="none" d="M295.177,367.252h-67.084v2.662c-10.309-3.057-20.104-6.793-29.276-11.123
					c-4.586-2.171-9.011-4.484-13.269-6.948h9.723V165.678h-9.723c4.258-2.464,8.682-4.778,13.269-6.949v5.089h192.72v-5.089
					c4.586,2.171,9.01,4.485,13.268,6.949h-6.1v186.165h6.1c-4.258,2.464-8.682,4.777-13.268,6.948
					c-9.168,4.33-18.969,8.066-29.277,11.123v-2.662H295.177z"/>
				<path clip-path="url(#SVGID_4_)" fill="none" d="M295.177,371.432c-22.227,0-43.4-3.151-62.66-8.85
					c-9.626-2.857-18.782-6.344-27.344-10.393c-4.281-2.021-8.419-4.191-12.389-6.486h2.487V171.818h-2.487
					c3.97-2.296,8.108-4.466,12.389-6.488c8.563-4.048,17.718-7.534,27.344-10.392v8.88h125.319v-8.88
					c19.26,5.704,36.6,13.956,51.166,24.151h-10.297v159.342h10.297C379.875,358.822,339.629,371.432,295.177,371.432z"/>
				<path clip-path="url(#SVGID_4_)" fill="none" d="M295.177,363.479c-41.314,0-78.715-11.721-105.79-30.675h5.884V184.717h-5.884
					c27.075-18.956,64.476-30.675,105.79-30.675c41.311,0,78.713,11.719,105.788,30.675h-2.26v148.088h2.26
					C373.891,351.759,336.488,363.479,295.177,363.479z"/>
				<path clip-path="url(#SVGID_4_)" fill="none" d="M295.177,361.267c-40.44,0-77.053-11.475-103.56-30.023h3.653V186.277h-3.653
					c26.507-18.548,63.119-30.023,103.56-30.023c40.444,0,77.057,11.475,103.557,30.023h-0.029v144.966h0.029
					C372.234,349.792,335.621,361.267,295.177,361.267z"/>
				<path clip-path="url(#SVGID_4_)" fill="none" d="M295.177,359.061c-39.573,0-75.396-11.23-101.323-29.377h1.417V187.837h-1.417
					c25.927-18.147,61.75-29.377,101.323-29.377c39.571,0,75.395,11.229,101.327,29.377c3.24,2.272,6.328,4.646,9.246,7.122h-7.045
					v127.603h7.045c-2.918,2.476-6.006,4.85-9.246,7.122C370.572,347.83,334.748,359.061,295.177,359.061z"/>
				<path clip-path="url(#SVGID_4_)" fill="none" d="M295.177,356.849c-38.701,0-73.734-10.979-99.093-28.731
					c-3.169-2.213-6.189-4.539-9.047-6.961h8.234V196.364h-8.234c2.858-2.422,5.878-4.748,9.047-6.96
					c25.359-17.753,60.392-28.731,99.093-28.731c38.698,0,73.733,10.978,99.092,28.731c3.174,2.212,6.193,4.538,9.047,6.96h-4.611
					v124.792h4.611c-2.854,2.422-5.873,4.748-9.047,6.961C368.91,345.869,333.875,356.849,295.177,356.849z"/>
				<path clip-path="url(#SVGID_4_)" fill="none" d="M295.177,354.643c-37.827,0-72.071-10.734-96.863-28.088
					c-3.098-2.17-6.051-4.441-8.844-6.804h5.8V197.77h-5.8c2.793-2.361,5.746-4.634,8.844-6.805
					c24.792-17.353,59.036-28.085,96.863-28.085c37.825,0,72.075,10.733,96.862,28.085c6.199,4.335,11.803,9.083,16.729,14.189
					h-10.063v107.213h10.063c-4.926,5.105-10.529,9.854-16.729,14.188C367.252,343.908,333.002,354.643,295.177,354.643z"/>
				<path clip-path="url(#SVGID_4_)" fill="none" d="M295.177,352.43c-36.954,0-70.415-10.482-94.632-27.435
					c-3.025-2.116-5.908-4.341-8.634-6.649h3.36V199.175h-3.36c2.727-2.309,5.609-4.532,8.634-6.649
					c24.217-16.952,57.679-27.434,94.632-27.434c36.952,0,70.415,10.481,94.631,27.434c6.051,4.239,11.527,8.88,16.342,13.861
					h-7.445v104.749h7.445c-4.814,4.981-10.291,9.621-16.342,13.86C365.592,341.947,332.129,352.43,295.177,352.43z"/>
				<path clip-path="url(#SVGID_4_)" fill="none" d="M295.177,350.223c-36.081,0-68.753-10.237-92.396-26.787
					c-5.914-4.139-11.265-8.671-15.959-13.539h8.449V207.624h-8.449c4.694-4.867,10.046-9.4,15.959-13.537
					c23.643-16.551,56.315-26.789,92.396-26.789c36.084,0,68.75,10.237,92.401,26.789c5.908,4.137,11.258,8.67,15.953,13.537h-4.826
					v102.273h4.826c-4.695,4.868-10.045,9.4-15.953,13.539C363.928,339.985,331.262,350.223,295.177,350.223z"/>
				<path clip-path="url(#SVGID_4_)" fill="none" d="M295.177,349.176c-35.674,0-67.97-10.117-91.344-26.477
					c-5.848-4.09-11.134-8.574-15.773-13.383h7.211V208.204h-7.211c4.64-4.807,9.926-9.292,15.773-13.382
					c23.374-16.36,55.669-26.478,91.344-26.478c35.672,0,67.967,10.117,91.342,26.478c5.848,4.09,11.133,8.575,15.773,13.382h-3.588
					v101.113h3.588c-4.641,4.809-9.926,9.293-15.773,13.383C363.145,339.059,330.85,349.176,295.177,349.176z"/>
				<path clip-path="url(#SVGID_4_)" fill="none" d="M295.177,348.135c-35.262,0-67.187-10.003-90.291-26.178
					c-5.776-4.042-11.002-8.473-15.595-13.227h5.979v-99.94h-5.979c4.592-4.754,9.818-9.185,15.595-13.227
					c23.104-16.174,55.029-26.178,90.291-26.178c35.26,0,67.184,10.004,90.29,26.178c5.781,4.042,11.002,8.473,15.596,13.227h-2.357
					v99.94h2.357c-4.594,4.754-9.814,9.185-15.596,13.227C362.361,338.132,330.438,348.135,295.177,348.135z"/>
				<path clip-path="url(#SVGID_4_)" fill="none" d="M295.177,347.096c-34.85,0-66.397-9.891-89.239-25.873
					c-5.71-4-10.876-8.377-15.409-13.078h4.741v-98.769h-4.741c4.532-4.7,9.698-9.077,15.409-13.078
					c22.842-15.983,54.389-25.873,89.239-25.873c34.848,0,66.401,9.89,89.237,25.873c5.711,4,10.877,8.377,15.416,13.078h-1.125
					v98.769h1.125c-4.539,4.701-9.705,9.078-15.416,13.078C361.578,337.205,330.025,347.096,295.177,347.096z"/>
				<path clip-path="url(#SVGID_4_)" fill="none" d="M295.177,346.056c-34.437,0-65.62-9.771-88.187-25.569
					c-5.644-3.945-10.745-8.275-15.23-12.922h3.51v-97.608h-3.51c4.485-4.646,9.586-8.975,15.23-12.922
					c22.566-15.798,53.75-25.568,88.187-25.568c34.442,0,65.618,9.77,88.184,25.568c5.645,3.947,10.746,8.276,15.23,12.922
					c2.242,2.32,4.322,4.724,6.248,7.193h-6.135v83.222h6.135c-1.926,2.471-4.006,4.874-6.248,7.193
					c-4.484,4.646-9.586,8.977-15.23,12.922C360.795,336.284,329.619,346.056,295.177,346.056z"/>
				<path clip-path="url(#SVGID_4_)" fill="none" d="M295.177,345.009c-34.024,0-64.831-9.657-87.134-25.264
					c-5.573-3.899-10.614-8.174-15.044-12.761h2.272v-96.449h-2.272c4.431-4.586,9.471-8.861,15.044-12.76
					c22.303-15.606,53.11-25.263,87.134-25.263c34.028,0,64.834,9.657,87.133,25.263c11.145,7.803,20.174,17.096,26.404,27.41
					h-10.01v67.15h10.01c-6.23,10.314-15.26,19.606-26.404,27.41C360.012,335.352,329.205,345.009,295.177,345.009z"/>
				<path clip-path="url(#SVGID_4_)" fill="none" d="M295.177,343.969c-33.617,0-64.047-9.539-86.082-24.959
					c-5.501-3.856-10.488-8.078-14.865-12.611h1.041v-95.276h-1.041c4.377-4.533,9.364-8.754,14.865-12.611
					c22.034-15.421,52.464-24.958,86.082-24.958c33.616,0,64.051,9.537,86.079,24.958c11.016,7.708,19.926,16.893,26.09,27.081
					h-8.641v66.336h8.641c-6.164,10.189-15.074,19.375-26.09,27.082C359.229,334.43,328.793,343.969,295.177,343.969z"/>
				<path clip-path="url(#SVGID_4_)" fill="none" d="M295.177,342.922c-33.206,0-63.264-9.418-85.023-24.648
					c-5.441-3.808-10.362-7.977-14.685-12.461c-2.159-2.235-4.174-4.55-6.022-6.936h5.824v-80.232h-5.824
					c1.848-2.386,3.863-4.7,6.022-6.937c4.323-4.484,9.244-8.652,14.685-12.461c21.759-15.229,51.818-24.647,85.023-24.647
					c33.204,0,63.262,9.418,85.028,24.647c10.877,7.618,19.684,16.683,25.766,26.752h-7.266v65.523h7.266
					c-6.082,10.07-14.889,19.135-25.766,26.752C358.439,333.504,328.381,342.922,295.177,342.922z"/>
				<path clip-path="url(#SVGID_4_)" fill="none" d="M295.177,341.881c-32.792,0-62.481-9.303-83.971-24.348
					c-10.746-7.521-19.439-16.474-25.455-26.418h9.519v-64.709h-9.519c6.015-9.944,14.709-18.895,25.455-26.417
					c21.49-15.044,51.178-24.349,83.971-24.349c32.79,0,62.485,9.305,83.975,24.349c10.74,7.522,19.439,16.473,25.449,26.417h-5.896
					v64.709h5.896c-6.01,9.945-14.709,18.897-25.449,26.418C357.662,332.578,327.967,341.881,295.177,341.881z"/>
				<path clip-path="url(#SVGID_4_)" fill="none" d="M295.177,340.84c-32.38,0-61.698-9.189-82.918-24.042
					c-10.614-7.427-19.2-16.271-25.132-26.088h8.144v-63.897h-8.144c5.932-9.818,14.518-18.663,25.132-26.088
					c21.221-14.854,50.539-24.044,82.918-24.044c32.383,0,61.696,9.19,82.917,24.044c10.613,7.426,19.199,16.27,25.133,26.088
					h-4.521v63.897h4.521c-5.934,9.818-14.52,18.662-25.133,26.088C356.873,331.65,327.561,340.84,295.177,340.84z"/>
				<path clip-path="url(#SVGID_4_)" fill="none" d="M295.177,339.795c-31.968,0-60.914-9.071-81.866-23.732
					c-10.476-7.332-18.949-16.061-24.809-25.76h6.769v-63.084h-6.769c5.86-9.699,14.333-18.429,24.809-25.76
					c20.953-14.662,49.898-23.732,81.866-23.732c31.971,0,60.913,9.07,81.864,23.732c10.477,7.331,18.957,16.061,24.809,25.76
					h-3.145v63.084h3.145c-5.852,9.699-14.332,18.428-24.809,25.76C356.09,330.724,327.148,339.795,295.177,339.795z"/>
				<path clip-path="url(#SVGID_4_)" fill="none" d="M295.177,338.754c-31.562,0-60.13-8.951-80.813-23.434
					c-10.339-7.234-18.71-15.857-24.492-25.424h5.399v-62.271h-5.399c5.782-9.568,14.153-18.19,24.492-25.425
					c20.683-14.482,49.252-23.434,80.813-23.434c31.559,0,60.129,8.952,80.811,23.434c10.34,7.235,18.711,15.857,24.492,25.425
					h-1.775v62.271h1.775c-5.781,9.567-14.152,18.19-24.492,25.424C355.307,329.803,326.736,338.754,295.177,338.754z"/>
				<path clip-path="url(#SVGID_4_)" fill="none" d="M295.177,337.707c-31.148,0-59.347-8.838-79.755-23.122
					c-10.207-7.146-18.47-15.648-24.175-25.096h4.024v-61.458h-4.024c5.705-9.447,13.968-17.95,24.175-25.096
					c20.408-14.285,48.607-23.122,79.755-23.122c62.293,0,112.797,35.344,112.797,78.947
					C407.975,302.362,357.471,337.707,295.177,337.707z"/>
				<path clip-path="url(#SVGID_4_)" fill="none" d="M295.177,336.667c-30.735,0-58.564-8.718-78.703-22.817
					c-10.075-7.051-18.226-15.445-23.858-24.767h2.655v-60.644h-2.655c5.632-9.322,13.783-17.718,23.858-24.767
					c20.139-14.1,47.968-22.817,78.703-22.817c61.475,0,111.307,34.878,111.307,77.907
					C406.484,301.789,356.652,336.667,295.177,336.667z"/>
				<path clip-path="url(#SVGID_4_)" fill="none" d="M295.177,335.627c-60.651,0-109.814-34.418-109.814-76.866
					c0-42.449,49.163-76.867,109.814-76.867c60.649,0,109.819,34.418,109.819,76.867
					C404.996,301.209,355.826,335.627,295.177,335.627z"/>
				<path clip-path="url(#SVGID_4_)" fill="none" d="M295.177,334.581c-59.826,0-108.325-33.946-108.325-75.82
					c0-41.875,48.5-75.82,108.325-75.82c59.831,0,108.323,33.946,108.323,75.82C403.5,300.635,355.008,334.581,295.177,334.581z"/>
				<ellipse clip-path="url(#SVGID_4_)" fill="none" cx="295.177" cy="258.76" rx="106.837" ry="74.78"/>
				<path clip-path="url(#SVGID_4_)" fill="none" d="M295.177,332.494c-58.181,0-105.348-33.008-105.348-73.733
					c0-40.727,47.167-73.733,105.348-73.733c58.18,0,105.346,33.007,105.346,73.733
					C400.523,299.486,353.357,332.494,295.177,332.494z"/>
				<path clip-path="url(#SVGID_4_)" fill="none" d="M295.177,331.453c-57.356,0-103.859-32.546-103.859-72.692
					c0-40.147,46.503-72.693,103.859-72.693c57.36,0,103.858,32.546,103.858,72.693
					C399.035,298.907,352.537,331.453,295.177,331.453z"/>
				<ellipse clip-path="url(#SVGID_4_)" fill="none" cx="295.177" cy="258.76" rx="102.37" ry="71.652"/>
				<path clip-path="url(#SVGID_4_)" fill="none" d="M295.177,329.372c-55.712,0-100.875-31.62-100.875-70.611
					c0-38.993,45.163-70.612,100.875-70.612c55.715,0,100.879,31.619,100.879,70.612
					C396.057,297.752,350.893,329.372,295.177,329.372z"/>
				<path clip-path="url(#SVGID_4_)" fill="none" d="M295.177,328.326c-54.893,0-99.386-31.148-99.386-69.565
					c0-38.418,44.494-69.566,99.386-69.566c54.891,0,99.391,31.147,99.391,69.566C394.568,297.178,350.068,328.326,295.177,328.326z
					"/>
				<ellipse clip-path="url(#SVGID_4_)" fill="none" cx="295.177" cy="258.76" rx="95.685" ry="66.976"/>
				<path clip-path="url(#SVGID_4_)" fill="none" d="M295.177,323.147c-50.803,0-91.989-28.827-91.989-64.387
					c0-35.561,41.187-64.388,91.989-64.388c50.801,0,91.987,28.827,91.987,64.388C387.164,294.32,345.979,323.147,295.177,323.147z"
					/>
				<path clip-path="url(#SVGID_4_)" fill="none" d="M295.177,320.559c-48.757,0-88.288-27.673-88.288-61.798
					s39.531-61.798,88.288-61.798c48.756,0,88.286,27.673,88.286,61.798S343.934,320.559,295.177,320.559z"/>
				<path clip-path="url(#SVGID_4_)" fill="none" d="M295.177,317.964c-46.713,0-84.586-26.508-84.586-59.203
					c0-32.696,37.874-59.203,84.586-59.203c46.717,0,84.584,26.507,84.584,59.203C379.762,291.456,341.895,317.964,295.177,317.964z
					"/>
				<ellipse clip-path="url(#SVGID_4_)" fill="none" cx="295.177" cy="258.761" rx="80.886" ry="56.614"/>
				<ellipse clip-path="url(#SVGID_4_)" fill="none" cx="295.177" cy="258.76" rx="77.184" ry="54.025"/>
				<ellipse clip-path="url(#SVGID_4_)" fill="none" cx="295.177" cy="258.76" rx="73.483" ry="51.435"/>
				<path clip-path="url(#SVGID_4_)" fill="none" d="M295.177,307.606c-38.539,0-69.781-21.873-69.781-48.846
					c0-26.974,31.243-48.847,69.781-48.847c38.543,0,69.786,21.873,69.786,48.847C364.963,285.734,333.721,307.606,295.177,307.606z
					"/>
				<path clip-path="url(#SVGID_4_)" fill="none" d="M295.177,305.012c-36.499,0-66.081-20.708-66.081-46.251
					c0-25.545,29.582-46.252,66.081-46.252c36.499,0,66.084,20.707,66.084,46.252C361.262,284.304,331.676,305.012,295.177,305.012z
					"/>
				<path clip-path="url(#SVGID_4_)" fill="none" d="M295.177,302.422c-34.455,0-62.379-19.546-62.379-43.661
					s27.924-43.663,62.379-43.663c34.452,0,62.383,19.547,62.383,43.663S329.629,302.422,295.177,302.422z"/>
				<path clip-path="url(#SVGID_4_)" fill="none" d="M295.177,299.833c-32.41,0-58.684-18.387-58.684-41.072
					c0-22.687,26.274-41.074,58.684-41.074c32.407,0,58.682,18.387,58.682,41.074C353.859,281.446,327.584,299.833,295.177,299.833z
					"/>
				<path clip-path="url(#SVGID_4_)" fill="none" d="M295.177,297.244c-30.364,0-54.982-17.226-54.982-38.483
					s24.619-38.484,54.982-38.484s54.981,17.227,54.981,38.484S325.541,297.244,295.177,297.244z"/>
				<path clip-path="url(#SVGID_4_)" fill="none" d="M295.177,294.656c-28.32,0-51.281-16.074-51.281-35.895
					c0-19.823,22.961-35.895,51.281-35.895c28.319,0,51.28,16.072,51.28,35.895C346.457,278.582,323.496,294.656,295.177,294.656z"
					/>
				<path clip-path="url(#SVGID_4_)" fill="none" d="M295.177,292.06c-26.274,0-47.58-14.907-47.58-33.299
					c0-18.393,21.305-33.3,47.58-33.3c26.278,0,47.577,14.907,47.577,33.3C342.754,277.153,321.455,292.06,295.177,292.06z"/>
				<path clip-path="url(#SVGID_4_)" fill="none" d="M295.177,289.471c-24.236,0-43.878-13.747-43.878-30.71
					c0-16.964,19.642-30.711,43.878-30.711c24.235,0,43.875,13.747,43.875,30.711C339.053,275.724,319.412,289.471,295.177,289.471z
					"/>
				<path clip-path="url(#SVGID_4_)" fill="none" d="M295.177,286.882c-22.19,0-40.177-12.593-40.177-28.122
					c0-15.529,17.986-28.122,40.177-28.122c22.19,0,40.18,12.593,40.18,28.122C335.357,274.289,317.367,286.882,295.177,286.882z"/>
				<ellipse clip-path="url(#SVGID_4_)" fill="none" cx="295.177" cy="258.76" rx="36.477" ry="25.533"/>
			</g>
		</g>
		
			<radialGradient id="SVGID_5_" cx="286.3735" cy="136.3408" r="199.5067" gradientTransform="matrix(0.7197 0 0 0.6126 90.3027 109.4907)" gradientUnits="userSpaceOnUse">
			<stop  offset="0" style="stop-color:#FFFFFF"/>
			<stop  offset="0.5607" style="stop-color:#E8E8E7"/>
			<stop  offset="0.7913" style="stop-color:#DFDFDE"/>
			<stop  offset="1" style="stop-color:#D0D4D8"/>
		</radialGradient>
		<path fill="url(#SVGID_5_)" d="M383.297,242.115c0,40.581-38.66,73.469-86.309,73.469c-47.68,0-86.311-32.889-86.311-73.469
			c0-40.575,38.63-73.467,86.311-73.467C344.637,168.648,383.297,201.54,383.297,242.115z"/>
		<linearGradient id="SVGID_6_" gradientUnits="userSpaceOnUse" x1="296.9805" y1="248.0781" x2="296.9805" y2="173.2852">
			<stop  offset="0" style="stop-color:#EAEAE9"/>
			<stop  offset="0.1187" style="stop-color:#EFEFEE"/>
			<stop  offset="0.5638" style="stop-color:#FBFBFB"/>
			<stop  offset="0.9785" style="stop-color:#FFFFFF"/>
		</linearGradient>
		<path fill="url(#SVGID_6_)" d="M359.48,210.679c0,20.656-27.992,37.399-62.493,37.399c-34.537,0-62.508-16.743-62.508-37.399
			c0-20.646,27.971-37.394,62.508-37.394C331.488,173.285,359.48,190.033,359.48,210.679z"/>
	</g>
</g>
<linearGradient id="SVGID_7_" gradientUnits="userSpaceOnUse" x1="302.3799" y1="445.1904" x2="306.3799" y2="368.19">
	<stop  offset="0" style="stop-color:#FFFFFF"/>
	<stop  offset="0.4534" style="stop-color:#FDFDFD"/>
	<stop  offset="0.6168" style="stop-color:#F7F6F7"/>
	<stop  offset="0.7332" style="stop-color:#ECEBEC"/>
	<stop  offset="0.8273" style="stop-color:#DCDADD"/>
	<stop  offset="0.9079" style="stop-color:#C7C4C9"/>
	<stop  offset="0.978" style="stop-color:#AEA9B0"/>
	<stop  offset="1" style="stop-color:#A49FA7"/>
</linearGradient>
<path opacity="0.6" fill="url(#SVGID_7_)" d="M403.723,442.781c-12.254-44.395-52.926-77-101.219-77
	c-48.292,0-88.963,32.605-101.218,77"/>
<g>
	<g>
		<radialGradient id="SVGID_8_" cx="272.2915" cy="242.3145" r="23.4383" gradientUnits="userSpaceOnUse">
			<stop  offset="0" style="stop-color:#AFDFE5"/>
			<stop  offset="0.478" style="stop-color:#00B2D6"/>
			<stop  offset="1" style="stop-color:#0086C1"/>
		</radialGradient>
		<path fill="url(#SVGID_8_)" d="M281.348,231.267c0,5.108-4.14,9.249-9.25,9.249c-5.105,0-9.249-4.141-9.249-9.249
			c0-5.11,4.144-9.251,9.249-9.251C277.208,222.016,281.348,226.157,281.348,231.267z"/>
		<g>
			<g>
				
					<radialGradient id="SVGID_9_" cx="509.8584" cy="-388.1104" r="20.9735" gradientTransform="matrix(-0.2673 0.9636 0.9636 0.2673 770.1128 -127.6084)" gradientUnits="userSpaceOnUse">
					<stop  offset="0" style="stop-color:#AFDFE5"/>
					<stop  offset="0.478" style="stop-color:#00B2D6"/>
					<stop  offset="1" style="stop-color:#0086C1"/>
				</radialGradient>
				<path fill="url(#SVGID_9_)" d="M260.263,266.556c-1.704,6.142-8.065,9.741-14.206,8.036c-2.863-0.795-5.168-2.602-6.643-4.926
					c-1.611-2.163-3.271-5.7-2.171-12.035c1.245-7.147,10.329-19.721,27.19-16.202l-0.033,0.028c0.353,0.08,0.703,0.164,1.053,0.263
					c11.668,3.236,18.504,15.318,15.269,26.986c-0.696,2.498-1.797,4.772-3.212,6.777c0.183-0.482,0.347-0.975,0.487-1.479
					c2.553-9.207-2.838-18.737-12.043-21.293c-3.854-1.069-7.766-0.741-11.2,0.673C259.307,255.917,261.719,261.316,260.263,266.556
					z"/>
			</g>
			<g>
				
					<radialGradient id="SVGID_10_" cx="426.4951" cy="-34.1123" r="45.6192" gradientTransform="matrix(0.2673 0.9636 -0.9636 0.2673 160.0317 -127.6084)" gradientUnits="userSpaceOnUse">
					<stop  offset="0" style="stop-color:#AFDFE5"/>
					<stop  offset="0.478" style="stop-color:#00B2D6"/>
					<stop  offset="1" style="stop-color:#0086C1"/>
				</radialGradient>
				<path fill="url(#SVGID_10_)" d="M305.99,288.613c3.709,13.36,17.541,21.186,30.904,17.479
					c6.229-1.729,11.236-5.66,14.449-10.713c3.502-4.705,7.113-12.398,4.717-26.179c-2.705-15.547-22.463-42.896-59.14-35.246
					l0.07,0.062c-0.765,0.173-1.529,0.358-2.297,0.571c-25.379,7.041-40.24,33.321-33.199,58.7
					c1.507,5.436,3.902,10.385,6.978,14.745c-0.393-1.049-0.753-2.119-1.058-3.223c-5.553-20.021,6.172-40.756,26.196-46.312
					c8.387-2.327,16.897-1.612,24.366,1.466C308.07,265.466,302.828,277.209,305.99,288.613z"/>
			</g>
			<g>
				
					<radialGradient id="SVGID_11_" cx="432.2451" cy="-16.9648" r="29.0455" gradientTransform="matrix(0.2673 0.9636 -0.9636 0.2673 160.0317 -127.6084)" gradientUnits="userSpaceOnUse">
					<stop  offset="0" style="stop-color:#AFDFE5"/>
					<stop  offset="0.478" style="stop-color:#00B2D6"/>
					<stop  offset="1" style="stop-color:#0086C1"/>
				</radialGradient>
				<path fill="url(#SVGID_11_)" d="M291.339,293.519c2.359,8.506,11.168,13.491,19.674,11.127c3.965-1.1,7.158-3.602,9.199-6.82
					c2.23-2.995,4.531-7.893,3.004-16.667c-1.721-9.9-14.299-27.313-37.653-22.444l0.046,0.042
					c-0.491,0.109-0.974,0.228-1.463,0.362c-16.158,4.483-25.623,21.217-21.141,37.377c0.962,3.458,2.486,6.609,4.444,9.386
					c-0.249-0.668-0.479-1.35-0.673-2.051c-3.538-12.749,3.931-25.951,16.677-29.489c5.342-1.481,10.761-1.026,15.517,0.933
					C292.661,278.781,289.324,286.259,291.339,293.519z"/>
			</g>
		</g>
	</g>
	<path opacity="0.36" fill="#A6F9FF" d="M303.166,302.145c4.27,0.975,8.932-0.127,12.355-3.359
		c3.424-3.233,4.789-7.824,4.061-12.141c-0.791,3.377-0.869,6.648-5.102,10.879C310.744,301.264,306.584,301.547,303.166,302.145z"
		/>
	<path fill="#D3EDF1" d="M247.506,273.02c2.919,0.666,6.105-0.086,8.443-2.295c2.342-2.21,3.275-5.347,2.776-8.3
		c-0.541,2.31-0.595,4.545-3.485,7.438C252.687,272.418,249.842,272.612,247.506,273.02z"/>
	<path opacity="0.36" fill="#A6F9FF" d="M302.779,240.509c-9.536-2.181-19.948,0.281-27.594,7.501
		c-7.647,7.22-10.701,17.474-9.073,27.12c1.77-7.545,1.939-14.853,11.393-24.306C285.854,242.474,295.149,241.842,302.779,240.509z"
		/>
	<g>
		<path fill="#FFFFFF" d="M269.722,254.94c-0.58,1.009-1.093,2.041-1.55,3.095l3.269,0.391c0.595-0.994,1.275-2.003,2.063-3.034
			L269.722,254.94 M276.467,246.875c-0.435,0.366-0.862,0.74-1.282,1.138c-1.675,1.572-3.111,3.308-4.34,5.14l4.071,0.475
			c0.771-0.909,1.635-1.849,2.59-2.804c1.29-1.29,2.612-2.406,3.94-3.361L276.467,246.875"/>
	</g>
	<path fill="#44C4DC" d="M312.299,274.907c-5-1.144-10.461,0.146-14.469,3.933c-4.012,3.786-5.613,9.161-4.759,14.222
		c0.929-3.957,1.018-7.789,5.974-12.746C303.424,275.937,308.299,275.607,312.299,274.907z"/>
	<path fill="#44C4DC" d="M252.915,253.903c-3.418-0.78-7.151,0.101-9.89,2.689c-2.742,2.586-3.836,6.262-3.253,9.717
		c0.635-2.704,0.695-5.322,4.083-8.709C246.849,254.606,250.178,254.378,252.915,253.903z"/>
	<g>
		<path fill="#FFFFFF" d="M294.969,282.48c-0.307,0.526-0.573,1.062-0.817,1.618l1.719,0.198c0.305-0.512,0.664-1.046,1.076-1.589
			L294.969,282.48 M298.498,278.247c-0.222,0.191-0.451,0.391-0.664,0.597c-0.88,0.824-1.635,1.733-2.286,2.688l2.141,0.253
			c0.404-0.475,0.854-0.971,1.359-1.468c0.68-0.68,1.369-1.26,2.07-1.764L298.498,278.247"/>
		<path fill="#FFFFFF" d="M241.066,259.073c-0.205,0.367-0.389,0.733-0.558,1.115l1.177,0.138c0.213-0.359,0.458-0.718,0.733-1.092
			L241.066,259.073 M243.48,256.185c-0.152,0.13-0.306,0.268-0.457,0.405c-0.597,0.565-1.118,1.184-1.552,1.841l1.46,0.176
			c0.274-0.328,0.579-0.665,0.923-1.009c0.467-0.466,0.938-0.862,1.414-1.207L243.48,256.185"/>
	</g>
</g>
</svg>
