<?xml version="1.0" encoding="utf-8"?>
<!-- Generator: Adobe Illustrator 16.0.0, SVG Export Plug-In . SVG Version: 6.00 Build 0)  -->
<!DOCTYPE svg PUBLIC "-//W3C//DTD SVG 1.1//EN" "http://www.w3.org/Graphics/SVG/1.1/DTD/svg11.dtd">
<svg version="1.1" id="Layer_1" xmlns="http://www.w3.org/2000/svg" xmlns:xlink="http://www.w3.org/1999/xlink" x="0px" y="0px"
	 width="595.28px" height="595.28px" viewBox="0 0 595.28 595.28" enable-background="new 0 0 595.28 595.28" xml:space="preserve">
<radialGradient id="SVGID_1_" cx="303" cy="37837" r="91.0473" gradientTransform="matrix(1 0 0 0.2287 0 -8292)" gradientUnits="userSpaceOnUse">
	<stop  offset="0" style="stop-color:#BDD4DF"/>
	<stop  offset="0.865" style="stop-color:#FFFFFF"/>
</radialGradient>
<path fill="url(#SVGID_1_)" d="M399.044,361.322c0,15.625-43.002,28.295-96.046,28.295c-53.043,0-96.041-12.67-96.041-28.295
	c0-15.624,42.998-28.294,96.041-28.294C356.042,333.028,399.044,345.698,399.044,361.322z"/>
<g>
	<g>
		
			<radialGradient id="SVGID_2_" cx="328.5859" cy="73.6943" r="124.0232" gradientTransform="matrix(0.8078 0 0 0.8078 32.5435 206.0054)" gradientUnits="userSpaceOnUse">
			<stop  offset="0" style="stop-color:#E9E8E8"/>
			<stop  offset="0.6345" style="stop-color:#E6E6E5"/>
			<stop  offset="0.9594" style="stop-color:#E3E2E2"/>
		</radialGradient>
		<path fill="url(#SVGID_2_)" d="M398.161,265.537c0,55.329-44.857,100.183-100.187,100.183
			c-55.33,0-100.188-44.854-100.188-100.183c0-55.333,44.857-100.187,100.188-100.187
			C353.304,165.35,398.161,210.204,398.161,265.537z"/>
		<g>
			<g>
				<defs>
					<path id="SVGID_3_" d="M398.161,265.537c0,55.329-44.857,100.183-100.187,100.183c-55.33,0-100.188-44.854-100.188-100.183
						c0-55.333,44.857-100.187,100.188-100.187C353.304,165.35,398.161,210.204,398.161,265.537z"/>
				</defs>
				<clipPath id="SVGID_4_">
					<use xlink:href="#SVGID_3_"  overflow="visible"/>
				</clipPath>
				<rect x="197.789" y="165.349" clip-path="url(#SVGID_4_)" fill="none" width="200.372" height="200.372"/>
				<path clip-path="url(#SVGID_4_)" fill="none" d="M296.164,367.252H229.08v2.662c-10.309-3.057-20.104-6.793-29.275-11.123
					c-4.587-2.171-9.012-4.484-13.27-6.948h9.723V165.678h-9.723c4.258-2.464,8.683-4.778,13.27-6.949v5.089h192.72v-5.089
					c4.586,2.171,9.01,4.485,13.268,6.949h-6.1v186.165h6.1c-4.258,2.464-8.682,4.777-13.268,6.948
					c-9.168,4.33-18.969,8.066-29.277,11.123v-2.662H296.164z"/>
				<path clip-path="url(#SVGID_4_)" fill="none" d="M296.164,371.432c-22.227,0-43.399-3.151-62.66-8.85
					c-9.626-2.857-18.781-6.344-27.344-10.393c-4.281-2.021-8.419-4.191-12.389-6.486h2.486V171.818h-2.486
					c3.97-2.296,8.107-4.466,12.389-6.488c8.563-4.048,17.718-7.534,27.344-10.392v8.88h125.319v-8.88
					c19.26,5.704,36.6,13.956,51.166,24.151h-10.297v159.342h10.297C380.862,358.822,340.615,371.432,296.164,371.432z"/>
				<path clip-path="url(#SVGID_4_)" fill="none" d="M296.164,363.479c-41.313,0-78.715-11.721-105.789-30.675h5.883V184.717h-5.883
					c27.074-18.956,64.476-30.675,105.789-30.675c41.313,0,78.714,11.719,105.788,30.675h-2.26v148.088h2.26
					C374.878,351.759,337.477,363.479,296.164,363.479z"/>
				<path clip-path="url(#SVGID_4_)" fill="none" d="M296.164,361.267c-40.439,0-77.053-11.475-103.559-30.023h3.652V186.277h-3.652
					c26.506-18.548,63.119-30.023,103.559-30.023c40.445,0,77.058,11.475,103.558,30.023h-0.029v144.966h0.029
					C373.222,349.792,336.609,361.267,296.164,361.267z"/>
				<path clip-path="url(#SVGID_4_)" fill="none" d="M296.164,359.061c-39.572,0-75.396-11.23-101.322-29.377h1.416V187.837h-1.416
					c25.926-18.147,61.75-29.377,101.322-29.377s75.396,11.229,101.327,29.377c3.24,2.272,6.328,4.646,9.246,7.122h-7.045v127.603
					h7.045c-2.918,2.476-6.006,4.85-9.246,7.122C371.56,347.83,335.736,359.061,296.164,359.061z"/>
				<path clip-path="url(#SVGID_4_)" fill="none" d="M296.164,356.849c-38.7,0-73.733-10.979-99.092-28.731
					c-3.17-2.213-6.189-4.539-9.048-6.961h8.233V196.364h-8.233c2.858-2.422,5.878-4.748,9.048-6.96
					c25.358-17.753,60.392-28.731,99.092-28.731c38.699,0,73.733,10.978,99.093,28.731c3.174,2.212,6.193,4.538,9.047,6.96h-4.611
					v124.792h4.611c-2.854,2.422-5.873,4.748-9.047,6.961C369.897,345.869,334.863,356.849,296.164,356.849z"/>
				<path clip-path="url(#SVGID_4_)" fill="none" d="M296.164,354.643c-37.826,0-72.07-10.734-96.862-28.088
					c-3.098-2.17-6.051-4.441-8.844-6.804h5.8V197.77h-5.8c2.793-2.361,5.746-4.634,8.844-6.805
					c24.792-17.353,59.036-28.085,96.862-28.085s72.075,10.733,96.862,28.085c6.199,4.335,11.803,9.083,16.729,14.189h-10.063
					v107.213h10.063c-4.926,5.105-10.529,9.854-16.729,14.188C368.239,343.908,333.99,354.643,296.164,354.643z"/>
				<path clip-path="url(#SVGID_4_)" fill="none" d="M296.164,352.43c-36.953,0-70.414-10.482-94.632-27.435
					c-3.025-2.116-5.907-4.341-8.634-6.649h3.359V199.175h-3.359c2.727-2.309,5.608-4.532,8.634-6.649
					c24.218-16.952,57.679-27.434,94.632-27.434s70.415,10.481,94.632,27.434c6.051,4.239,11.527,8.88,16.342,13.861h-7.445v104.749
					h7.445c-4.814,4.981-10.291,9.621-16.342,13.86C366.579,341.947,333.117,352.43,296.164,352.43z"/>
				<path clip-path="url(#SVGID_4_)" fill="none" d="M296.164,350.223c-36.08,0-68.752-10.237-92.396-26.787
					c-5.913-4.139-11.265-8.671-15.96-13.539h8.449V207.624h-8.449c4.695-4.867,10.047-9.4,15.96-13.537
					c23.644-16.551,56.315-26.789,92.396-26.789c36.086,0,68.751,10.237,92.401,26.789c5.908,4.137,11.258,8.67,15.953,13.537
					h-4.826v102.273h4.826c-4.695,4.868-10.045,9.4-15.953,13.539C364.915,339.985,332.25,350.223,296.164,350.223z"/>
				<path clip-path="url(#SVGID_4_)" fill="none" d="M296.164,349.176c-35.674,0-67.969-10.117-91.344-26.477
					c-5.848-4.09-11.133-8.574-15.773-13.383h7.211V208.204h-7.211c4.641-4.807,9.926-9.292,15.773-13.382
					c23.375-16.36,55.67-26.478,91.344-26.478s67.968,10.117,91.343,26.478c5.848,4.09,11.133,8.575,15.773,13.382h-3.588v101.113
					h3.588c-4.641,4.809-9.926,9.293-15.773,13.383C364.132,339.059,331.838,349.176,296.164,349.176z"/>
				<path clip-path="url(#SVGID_4_)" fill="none" d="M296.164,348.135c-35.262,0-67.186-10.003-90.291-26.178
					c-5.775-4.042-11.002-8.473-15.594-13.227h5.979v-99.94h-5.979c4.592-4.754,9.818-9.185,15.594-13.227
					c23.105-16.174,55.029-26.178,90.291-26.178s67.185,10.004,90.29,26.178c5.781,4.042,11.002,8.473,15.596,13.227h-2.357v99.94
					h2.357c-4.594,4.754-9.814,9.185-15.596,13.227C363.349,338.132,331.426,348.135,296.164,348.135z"/>
				<path clip-path="url(#SVGID_4_)" fill="none" d="M296.164,347.096c-34.85,0-66.396-9.891-89.238-25.873
					c-5.711-4-10.877-8.377-15.408-13.078h4.74v-98.769h-4.74c4.531-4.7,9.697-9.077,15.408-13.078
					c22.842-15.983,54.389-25.873,89.238-25.873c34.848,0,66.401,9.89,89.237,25.873c5.711,4,10.877,8.377,15.416,13.078h-1.125
					v98.769h1.125c-4.539,4.701-9.705,9.078-15.416,13.078C362.565,337.205,331.012,347.096,296.164,347.096z"/>
				<path clip-path="url(#SVGID_4_)" fill="none" d="M296.164,346.056c-34.437,0-65.619-9.771-88.186-25.569
					c-5.645-3.945-10.746-8.275-15.23-12.922h3.51v-97.608h-3.51c4.484-4.646,9.586-8.975,15.23-12.922
					c22.566-15.798,53.749-25.568,88.186-25.568c34.441,0,65.618,9.77,88.185,25.568c5.645,3.947,10.746,8.276,15.23,12.922
					c2.242,2.32,4.322,4.724,6.248,7.193h-6.135v83.222h6.135c-1.926,2.471-4.006,4.874-6.248,7.193
					c-4.484,4.646-9.586,8.977-15.23,12.922C361.782,336.284,330.605,346.056,296.164,346.056z"/>
				<path clip-path="url(#SVGID_4_)" fill="none" d="M296.164,345.009c-34.023,0-64.83-9.657-87.133-25.264
					c-5.574-3.899-10.614-8.174-15.045-12.761h2.271v-96.449h-2.271c4.431-4.586,9.471-8.861,15.045-12.76
					c22.303-15.606,53.109-25.263,87.133-25.263c34.029,0,64.835,9.657,87.134,25.263c11.145,7.803,20.174,17.096,26.404,27.41
					h-10.01v67.15h10.01c-6.23,10.314-15.26,19.606-26.404,27.41C360.999,335.352,330.193,345.009,296.164,345.009z"/>
				<path clip-path="url(#SVGID_4_)" fill="none" d="M296.164,343.969c-33.617,0-64.047-9.539-86.081-24.959
					c-5.501-3.856-10.487-8.078-14.865-12.611h1.04v-95.276h-1.04c4.378-4.533,9.364-8.754,14.865-12.611
					c22.034-15.421,52.464-24.958,86.081-24.958s64.052,9.537,86.079,24.958c11.016,7.708,19.926,16.893,26.09,27.081h-8.641v66.336
					h8.641c-6.164,10.189-15.074,19.375-26.09,27.082C360.216,334.43,329.781,343.969,296.164,343.969z"/>
				<path clip-path="url(#SVGID_4_)" fill="none" d="M296.164,342.922c-33.205,0-63.264-9.418-85.023-24.648
					c-5.44-3.808-10.361-7.977-14.685-12.461c-2.159-2.235-4.175-4.55-6.022-6.936h5.824v-80.232h-5.824
					c1.848-2.386,3.863-4.7,6.022-6.937c4.323-4.484,9.244-8.652,14.685-12.461c21.76-15.229,51.818-24.647,85.023-24.647
					c33.203,0,63.263,9.418,85.028,24.647c10.877,7.618,19.684,16.683,25.766,26.752h-7.266v65.523h7.266
					c-6.082,10.07-14.889,19.135-25.766,26.752C359.427,333.504,329.367,342.922,296.164,342.922z"/>
				<path clip-path="url(#SVGID_4_)" fill="none" d="M296.164,341.881c-32.792,0-62.48-9.303-83.971-24.348
					c-10.745-7.521-19.439-16.474-25.454-26.418h9.519v-64.709h-9.519c6.015-9.944,14.709-18.895,25.454-26.417
					c21.49-15.044,51.179-24.349,83.971-24.349c32.791,0,62.485,9.305,83.976,24.349c10.74,7.522,19.439,16.473,25.449,26.417
					h-5.896v64.709h5.896c-6.01,9.945-14.709,18.897-25.449,26.418C358.649,332.578,328.955,341.881,296.164,341.881z"/>
				<path clip-path="url(#SVGID_4_)" fill="none" d="M296.164,340.84c-32.379,0-61.697-9.189-82.918-24.042
					c-10.613-7.427-19.2-16.271-25.132-26.088h8.144v-63.897h-8.144c5.932-9.818,14.519-18.663,25.132-26.088
					c21.221-14.854,50.539-24.044,82.918-24.044c32.385,0,61.696,9.19,82.917,24.044c10.613,7.426,19.199,16.27,25.133,26.088
					h-4.521v63.897h4.521c-5.934,9.818-14.52,18.662-25.133,26.088C357.86,331.65,328.549,340.84,296.164,340.84z"/>
				<path clip-path="url(#SVGID_4_)" fill="none" d="M296.164,339.795c-31.967,0-60.913-9.071-81.865-23.732
					c-10.477-7.332-18.949-16.061-24.809-25.76h6.768v-63.084h-6.768c5.859-9.699,14.332-18.429,24.809-25.76
					c20.952-14.662,49.898-23.732,81.865-23.732c31.971,0,60.913,9.07,81.864,23.732c10.477,7.331,18.957,16.061,24.809,25.76
					h-3.145v63.084h3.145c-5.852,9.699-14.332,18.428-24.809,25.76C357.077,330.724,328.135,339.795,296.164,339.795z"/>
				<path clip-path="url(#SVGID_4_)" fill="none" d="M296.164,338.754c-31.561,0-60.13-8.951-80.813-23.434
					c-10.34-7.234-18.711-15.857-24.492-25.424h5.398v-62.271h-5.398c5.781-9.568,14.152-18.19,24.492-25.425
					c20.683-14.482,49.252-23.434,80.813-23.434s60.13,8.952,80.812,23.434c10.34,7.235,18.711,15.857,24.492,25.425h-1.775v62.271
					h1.775c-5.781,9.567-14.152,18.19-24.492,25.424C356.294,329.803,327.725,338.754,296.164,338.754z"/>
				<path clip-path="url(#SVGID_4_)" fill="none" d="M296.164,337.707c-31.148,0-59.347-8.838-79.755-23.122
					c-10.207-7.146-18.47-15.648-24.175-25.096h4.023v-61.458h-4.023c5.705-9.447,13.968-17.95,24.175-25.096
					c20.408-14.285,48.606-23.122,79.755-23.122c62.294,0,112.798,35.344,112.798,78.947
					C408.962,302.362,358.458,337.707,296.164,337.707z"/>
				<path clip-path="url(#SVGID_4_)" fill="none" d="M296.164,336.667c-30.734,0-58.563-8.718-78.703-22.817
					c-10.074-7.051-18.225-15.445-23.857-24.767h2.654v-60.644h-2.654c5.633-9.322,13.783-17.718,23.857-24.767
					c20.14-14.1,47.969-22.817,78.703-22.817c61.476,0,111.308,34.878,111.308,77.907
					C407.472,301.789,357.64,336.667,296.164,336.667z"/>
				<path clip-path="url(#SVGID_4_)" fill="none" d="M296.164,335.627c-60.65,0-109.813-34.418-109.813-76.866
					c0-42.449,49.163-76.867,109.813-76.867c60.649,0,109.819,34.418,109.819,76.867
					C405.983,301.209,356.813,335.627,296.164,335.627z"/>
				<path clip-path="url(#SVGID_4_)" fill="none" d="M296.164,334.581c-59.825,0-108.324-33.946-108.324-75.82
					c0-41.875,48.499-75.82,108.324-75.82c59.831,0,108.323,33.946,108.323,75.82C404.487,300.635,355.995,334.581,296.164,334.581z
					"/>
				<ellipse clip-path="url(#SVGID_4_)" fill="none" cx="296.164" cy="258.76" rx="106.836" ry="74.78"/>
				<path clip-path="url(#SVGID_4_)" fill="none" d="M296.164,332.494c-58.181,0-105.348-33.008-105.348-73.733
					c0-40.727,47.167-73.733,105.348-73.733s105.347,33.007,105.347,73.733C401.511,299.486,354.345,332.494,296.164,332.494z"/>
				<path clip-path="url(#SVGID_4_)" fill="none" d="M296.164,331.453c-57.355,0-103.858-32.546-103.858-72.692
					c0-40.147,46.503-72.693,103.858-72.693c57.36,0,103.858,32.546,103.858,72.693
					C400.022,298.907,353.524,331.453,296.164,331.453z"/>
				<ellipse clip-path="url(#SVGID_4_)" fill="none" cx="296.164" cy="258.76" rx="102.369" ry="71.652"/>
				<path clip-path="url(#SVGID_4_)" fill="none" d="M296.164,329.372c-55.711,0-100.874-31.62-100.874-70.611
					c0-38.993,45.163-70.612,100.874-70.612c55.716,0,100.88,31.619,100.88,70.612C397.044,297.752,351.88,329.372,296.164,329.372z
					"/>
				<path clip-path="url(#SVGID_4_)" fill="none" d="M296.164,328.326c-54.893,0-99.386-31.148-99.386-69.565
					c0-38.418,44.493-69.566,99.386-69.566c54.892,0,99.392,31.147,99.392,69.566C395.556,297.178,351.056,328.326,296.164,328.326z
					"/>
				<path clip-path="url(#SVGID_4_)" fill="none" d="M296.164,325.736c-52.848,0-95.684-29.986-95.684-66.976
					s42.836-66.977,95.684-66.977c52.846,0,95.688,29.987,95.688,66.977S349.01,325.736,296.164,325.736z"/>
				<path clip-path="url(#SVGID_4_)" fill="none" d="M296.164,323.147c-50.803,0-91.988-28.827-91.988-64.387
					c0-35.561,41.186-64.388,91.988-64.388c50.801,0,91.987,28.827,91.987,64.388C388.151,294.32,346.965,323.147,296.164,323.147z"
					/>
				<path clip-path="url(#SVGID_4_)" fill="none" d="M296.164,320.559c-48.757,0-88.287-27.673-88.287-61.798
					s39.53-61.798,88.287-61.798c48.756,0,88.286,27.673,88.286,61.798S344.92,320.559,296.164,320.559z"/>
				<ellipse clip-path="url(#SVGID_4_)" fill="none" cx="296.164" cy="258.761" rx="84.586" ry="59.203"/>
				<ellipse clip-path="url(#SVGID_4_)" fill="none" cx="296.164" cy="258.761" rx="80.885" ry="56.614"/>
				<ellipse clip-path="url(#SVGID_4_)" fill="none" cx="296.164" cy="258.76" rx="77.184" ry="54.025"/>
				<ellipse clip-path="url(#SVGID_4_)" fill="none" cx="296.164" cy="258.76" rx="73.482" ry="51.435"/>
				<path clip-path="url(#SVGID_4_)" fill="none" d="M296.164,307.606c-38.538,0-69.781-21.873-69.781-48.846
					c0-26.974,31.243-48.847,69.781-48.847c38.543,0,69.786,21.873,69.786,48.847C365.95,285.734,334.707,307.606,296.164,307.606z"
					/>
				<path clip-path="url(#SVGID_4_)" fill="none" d="M296.164,305.012c-36.498,0-66.08-20.708-66.08-46.251
					c0-25.545,29.582-46.252,66.08-46.252s66.085,20.707,66.085,46.252C362.249,284.304,332.662,305.012,296.164,305.012z"/>
				<path clip-path="url(#SVGID_4_)" fill="none" d="M296.164,302.422c-34.454,0-62.379-19.546-62.379-43.661
					s27.925-43.663,62.379-43.663c34.453,0,62.384,19.547,62.384,43.663S330.617,302.422,296.164,302.422z"/>
				<ellipse clip-path="url(#SVGID_4_)" fill="none" cx="296.164" cy="258.76" rx="58.684" ry="41.073"/>
				<path clip-path="url(#SVGID_4_)" fill="none" d="M296.164,297.244c-30.363,0-54.982-17.226-54.982-38.483
					s24.619-38.484,54.982-38.484s54.981,17.227,54.981,38.484S326.527,297.244,296.164,297.244z"/>
				<path clip-path="url(#SVGID_4_)" fill="none" d="M296.164,294.656c-28.32,0-51.281-16.074-51.281-35.895
					c0-19.823,22.961-35.895,51.281-35.895c28.318,0,51.279,16.072,51.279,35.895C347.443,278.582,324.482,294.656,296.164,294.656z
					"/>
				<path clip-path="url(#SVGID_4_)" fill="none" d="M296.164,292.06c-26.273,0-47.579-14.907-47.579-33.299
					c0-18.393,21.306-33.3,47.579-33.3c26.279,0,47.578,14.907,47.578,33.3C343.742,277.153,322.443,292.06,296.164,292.06z"/>
				<path clip-path="url(#SVGID_4_)" fill="none" d="M296.164,289.471c-24.236,0-43.877-13.747-43.877-30.71
					c0-16.964,19.641-30.711,43.877-30.711c24.234,0,43.877,13.747,43.877,30.711C340.041,275.724,320.398,289.471,296.164,289.471z
					"/>
				<path clip-path="url(#SVGID_4_)" fill="none" d="M296.164,286.882c-22.189,0-40.176-12.593-40.176-28.122
					c0-15.529,17.986-28.122,40.176-28.122s40.182,12.593,40.182,28.122C336.346,274.289,318.354,286.882,296.164,286.882z"/>
				<ellipse clip-path="url(#SVGID_4_)" fill="none" cx="296.164" cy="258.76" rx="36.477" ry="25.533"/>
			</g>
		</g>
		
			<radialGradient id="SVGID_5_" cx="287.7456" cy="136.3408" r="199.5072" gradientTransform="matrix(0.7197 0 0 0.6126 90.3027 109.4907)" gradientUnits="userSpaceOnUse">
			<stop  offset="0" style="stop-color:#FFFFFF"/>
			<stop  offset="0.5607" style="stop-color:#E8E8E7"/>
			<stop  offset="0.7913" style="stop-color:#DFDFDE"/>
			<stop  offset="1" style="stop-color:#D0D4D8"/>
		</radialGradient>
		<path fill="url(#SVGID_5_)" d="M384.284,242.115c0,40.581-38.661,73.469-86.31,73.469c-47.68,0-86.311-32.889-86.311-73.469
			c0-40.575,38.631-73.467,86.311-73.467C345.623,168.648,384.284,201.54,384.284,242.115z"/>
		<linearGradient id="SVGID_6_" gradientUnits="userSpaceOnUse" x1="297.9673" y1="248.0781" x2="297.9673" y2="173.2852">
			<stop  offset="0" style="stop-color:#EAEAE9"/>
			<stop  offset="0.1187" style="stop-color:#EFEFEE"/>
			<stop  offset="0.5638" style="stop-color:#FBFBFB"/>
			<stop  offset="0.9785" style="stop-color:#FFFFFF"/>
		</linearGradient>
		<path fill="url(#SVGID_6_)" d="M360.468,210.679c0,20.656-27.991,37.399-62.493,37.399c-34.536,0-62.508-16.743-62.508-37.399
			c0-20.646,27.972-37.394,62.508-37.394C332.477,173.285,360.468,190.033,360.468,210.679z"/>
	</g>
</g>
<linearGradient id="SVGID_7_" gradientUnits="userSpaceOnUse" x1="303.3662" y1="445.1904" x2="307.3662" y2="368.19">
	<stop  offset="0" style="stop-color:#FFFFFF"/>
	<stop  offset="0.4534" style="stop-color:#FDFDFD"/>
	<stop  offset="0.6168" style="stop-color:#F7F6F7"/>
	<stop  offset="0.7332" style="stop-color:#ECEBEC"/>
	<stop  offset="0.8273" style="stop-color:#DCDADD"/>
	<stop  offset="0.9079" style="stop-color:#C7C4C9"/>
	<stop  offset="0.978" style="stop-color:#AEA9B0"/>
	<stop  offset="1" style="stop-color:#A49FA7"/>
</linearGradient>
<path opacity="0.6" fill="url(#SVGID_7_)" d="M404.71,442.781c-12.254-44.395-52.926-77-101.218-77
	c-48.293,0-88.965,32.605-101.219,77"/>
<g>
	
		<radialGradient id="SVGID_8_" cx="313.6357" cy="257.7598" r="41.6596" gradientTransform="matrix(0.9815 -0.1916 0.1916 0.9815 -70.2881 69.0054)" gradientUnits="userSpaceOnUse">
		<stop  offset="0" style="stop-color:#FFFFFF"/>
		<stop  offset="0.497" style="stop-color:#EFED87"/>
		<stop  offset="1" style="stop-color:#AFD138"/>
	</radialGradient>
	<path fill="url(#SVGID_8_)" d="M313.938,315.367c-30.535-0.627-63.045-47.283-52.961-90.182c0.27-4.344,1.049-8.635,2.41-12.807
		c-1.004,9.051-0.456,17.525,1.293,25.408c12.012,25.907,54.891,17.291,71.543,28.914c12.35,8.676,12.486,26.533,2.785,38.04
		c1.43,0.197,2.85,0.35,4.254,0.453c10.688-14.434,11.021-35.56-2.539-45.058c-21.797-15.271-75.789,0.628-77.166-49.159
		c-29.725,50.916,14.199,108.235,49.531,109.002c9.541,0.207,17.527-2.951,23.684-7.965c-1.68-0.311-3.352-0.676-5.014-1.092
		C326.941,313.814,320.977,315.529,313.938,315.367z"/>
	
		<radialGradient id="SVGID_9_" cx="313.6357" cy="257.7603" r="41.6598" gradientTransform="matrix(0.9815 -0.1916 0.1916 0.9815 -70.2881 69.0054)" gradientUnits="userSpaceOnUse">
		<stop  offset="0" style="stop-color:#FFFFFF"/>
		<stop  offset="0.497" style="stop-color:#EFED87"/>
		<stop  offset="1" style="stop-color:#AFD138"/>
	</radialGradient>
	<path fill="url(#SVGID_9_)" d="M336.223,266.701c-16.652-11.623-59.531-3.007-71.543-28.914
		c6.98,31.469,33.412,53.337,59.648,63.229c4.98,1.875,9.893,3.066,14.68,3.725C348.709,293.234,348.572,275.376,336.223,266.701z"
		/>
	
		<radialGradient id="SVGID_10_" cx="314.1973" cy="258.2422" r="43.9244" gradientTransform="matrix(0.9815 -0.1916 0.1916 0.9815 -70.2881 69.0054)" gradientUnits="userSpaceOnUse">
		<stop  offset="0" style="stop-color:#C3D82E"/>
		<stop  offset="0.75" style="stop-color:#7DAC35"/>
	</radialGradient>
	<path fill="url(#SVGID_10_)" d="M336.223,266.701c-16.652-11.623-59.531-3.007-71.543-28.914
		c6.98,31.469,33.412,53.337,59.648,63.229c4.98,1.875,9.893,3.066,14.68,3.725C348.709,293.234,348.572,275.376,336.223,266.701z"
		/>
	
		<radialGradient id="SVGID_11_" cx="313.6348" cy="257.7603" r="41.6602" gradientTransform="matrix(0.9815 -0.1916 0.1916 0.9815 -70.2881 69.0054)" gradientUnits="userSpaceOnUse">
		<stop  offset="0" style="stop-color:#FFFFFF"/>
		<stop  offset="0.497" style="stop-color:#EFED87"/>
		<stop  offset="1" style="stop-color:#AFD138"/>
	</radialGradient>
	<path fill="url(#SVGID_11_)" d="M260.977,225.185c-10.084,42.899,22.426,89.555,52.961,90.182
		c7.039,0.162,13.004-1.553,17.82-4.445C292.076,300.951,258.729,261.155,260.977,225.185z"/>
	
		<radialGradient id="SVGID_12_" cx="314.1963" cy="258.2427" r="43.9245" gradientTransform="matrix(0.9815 -0.1916 0.1916 0.9815 -70.2881 69.0054)" gradientUnits="userSpaceOnUse">
		<stop  offset="0" style="stop-color:#C3D82E"/>
		<stop  offset="0.75" style="stop-color:#7DAC35"/>
	</radialGradient>
	<path fill="url(#SVGID_12_)" d="M260.977,225.185c-10.084,42.899,22.426,89.555,52.961,90.182
		c7.039,0.162,13.004-1.553,17.82-4.445C292.076,300.951,258.729,261.155,260.977,225.185z"/>
	
		<radialGradient id="SVGID_13_" cx="313.6357" cy="257.7612" r="41.6596" gradientTransform="matrix(0.9815 -0.1916 0.1916 0.9815 -70.2881 69.0054)" gradientUnits="userSpaceOnUse">
		<stop  offset="0" style="stop-color:#FFFFFF"/>
		<stop  offset="0.497" style="stop-color:#EFED87"/>
		<stop  offset="1" style="stop-color:#AFD138"/>
	</radialGradient>
	<path fill="url(#SVGID_13_)" d="M264.68,237.787c-1.749-7.883-2.297-16.357-1.293-25.408c-1.361,4.172-2.141,8.463-2.41,12.807
		c0.17-0.729,0.352-1.455,0.547-2.18C261.685,228.907,262.813,233.758,264.68,237.787z"/>
</g>
<g>
	<path fill="#5C5C5C" d="M186.645,357.896c1.271-1.706,2.58-4.495,1.711-9.493"/>
</g>
</svg>
