<?xml version="1.0" encoding="utf-8"?>
<!-- Generator: Adobe Illustrator 16.0.0, SVG Export Plug-In . SVG Version: 6.00 Build 0)  -->
<!DOCTYPE svg PUBLIC "-//W3C//DTD SVG 1.1//EN" "http://www.w3.org/Graphics/SVG/1.1/DTD/svg11.dtd">
<svg version="1.1" id="Layer_1" xmlns="http://www.w3.org/2000/svg" xmlns:xlink="http://www.w3.org/1999/xlink" x="0px" y="0px"
	 width="595.28px" height="595.28px" viewBox="0 0 595.28 595.28" enable-background="new 0 0 595.28 595.28" xml:space="preserve">
<g>
	<g opacity="0.6">
		<linearGradient id="SVGID_1_" gradientUnits="userSpaceOnUse" x1="300.252" y1="192.6636" x2="300.7624" y2="182.8369">
			<stop  offset="0" style="stop-color:#FFFFFF"/>
			<stop  offset="0.4534" style="stop-color:#FDFDFD"/>
			<stop  offset="0.6168" style="stop-color:#F7F6F7"/>
			<stop  offset="0.7332" style="stop-color:#ECEBEC"/>
			<stop  offset="0.8273" style="stop-color:#DCDADD"/>
			<stop  offset="0.9079" style="stop-color:#C7C4C9"/>
			<stop  offset="0.978" style="stop-color:#AEA9B0"/>
			<stop  offset="1" style="stop-color:#A49FA7"/>
		</linearGradient>
		<path opacity="0.6" fill="url(#SVGID_1_)" d="M199.286,187.781h202.437"/>
	</g>
</g>
<radialGradient id="SVGID_2_" cx="302.0127" cy="37876.3594" r="91.0473" gradientTransform="matrix(1 0 0 0.2287 0 -8292)" gradientUnits="userSpaceOnUse">
	<stop  offset="0" style="stop-color:#BDD4DF"/>
	<stop  offset="0.865" style="stop-color:#FFFFFF"/>
</radialGradient>
<path fill="url(#SVGID_2_)" d="M398.057,370.322c0,15.625-43.002,28.295-96.047,28.295c-53.042,0-96.041-12.67-96.041-28.295
	c0-15.624,42.999-28.294,96.041-28.294C355.055,342.028,398.057,354.698,398.057,370.322z"/>
<g>
	<g>
		
			<radialGradient id="SVGID_3_" cx="327.3633" cy="84.835" r="124.0232" gradientTransform="matrix(0.8078 0 0 0.8078 32.5435 206.0054)" gradientUnits="userSpaceOnUse">
			<stop  offset="0" style="stop-color:#E9E8E8"/>
			<stop  offset="0.6345" style="stop-color:#E6E6E5"/>
			<stop  offset="0.9594" style="stop-color:#E3E2E2"/>
		</radialGradient>
		<path fill="url(#SVGID_3_)" d="M397.174,274.537c0,55.328-44.857,100.183-100.186,100.183
			c-55.331,0-100.188-44.854-100.188-100.183c0-55.334,44.857-100.188,100.188-100.188
			C352.316,174.35,397.174,219.203,397.174,274.537z"/>
		<g>
			<g>
				<defs>
					<path id="SVGID_4_" d="M397.174,274.537c0,55.328-44.857,100.183-100.186,100.183c-55.331,0-100.188-44.854-100.188-100.183
						c0-55.334,44.857-100.188,100.188-100.188C352.316,174.35,397.174,219.203,397.174,274.537z"/>
				</defs>
				<clipPath id="SVGID_5_">
					<use xlink:href="#SVGID_4_"  overflow="visible"/>
				</clipPath>
				<rect x="196.802" y="174.349" clip-path="url(#SVGID_5_)" fill="none" width="200.372" height="200.372"/>
				<path clip-path="url(#SVGID_5_)" fill="none" d="M295.177,376.252h-67.084v2.662c-10.309-3.057-20.104-6.793-29.276-11.123
					c-4.586-2.171-9.011-4.484-13.269-6.948h9.723V174.678h-9.723c4.258-2.464,8.682-4.777,13.269-6.949v5.09h192.72v-5.09
					c4.586,2.172,9.01,4.485,13.268,6.949h-6.1v186.165h6.1c-4.258,2.464-8.682,4.777-13.268,6.948
					c-9.168,4.33-18.969,8.066-29.277,11.123v-2.662H295.177z"/>
				<path clip-path="url(#SVGID_5_)" fill="none" d="M295.177,380.432c-22.227,0-43.4-3.151-62.66-8.85
					c-9.626-2.857-18.782-6.344-27.344-10.393c-4.281-2.021-8.419-4.191-12.389-6.486h2.487V180.818h-2.487
					c3.97-2.296,8.108-4.467,12.389-6.488c8.563-4.047,17.718-7.533,27.344-10.392v8.88h125.319v-8.88
					c19.26,5.704,36.6,13.956,51.166,24.151h-10.297v159.342h10.297C379.875,367.822,339.629,380.432,295.177,380.432z"/>
				<path clip-path="url(#SVGID_5_)" fill="none" d="M295.177,372.479c-41.314,0-78.715-11.721-105.79-30.675h5.884V193.717h-5.884
					c27.075-18.955,64.476-30.675,105.79-30.675c41.311,0,78.713,11.72,105.788,30.675h-2.26v148.088h2.26
					C373.891,360.759,336.488,372.479,295.177,372.479z"/>
				<path clip-path="url(#SVGID_5_)" fill="none" d="M295.177,370.267c-40.44,0-77.053-11.475-103.56-30.023h3.653V195.277h-3.653
					c26.507-18.549,63.119-30.023,103.56-30.023c40.444,0,77.057,11.475,103.557,30.023h-0.029v144.966h0.029
					C372.234,358.792,335.621,370.267,295.177,370.267z"/>
				<path clip-path="url(#SVGID_5_)" fill="none" d="M295.177,368.061c-39.573,0-75.396-11.23-101.323-29.377h1.417V196.838h-1.417
					c25.927-18.148,61.75-29.377,101.323-29.377c39.571,0,75.395,11.229,101.327,29.377c3.24,2.271,6.328,4.646,9.246,7.121h-7.045
					v127.603h7.045c-2.918,2.476-6.006,4.85-9.246,7.122C370.572,356.83,334.748,368.061,295.177,368.061z"/>
				<path clip-path="url(#SVGID_5_)" fill="none" d="M295.177,365.849c-38.701,0-73.734-10.979-99.093-28.731
					c-3.169-2.213-6.189-4.539-9.047-6.961h8.234V205.364h-8.234c2.858-2.422,5.878-4.747,9.047-6.96
					c25.359-17.754,60.392-28.731,99.093-28.731c38.698,0,73.733,10.978,99.092,28.731c3.174,2.213,6.193,4.538,9.047,6.96h-4.611
					v124.792h4.611c-2.854,2.422-5.873,4.748-9.047,6.961C368.91,354.869,333.875,365.849,295.177,365.849z"/>
				<path clip-path="url(#SVGID_5_)" fill="none" d="M295.177,363.643c-37.827,0-72.071-10.734-96.863-28.088
					c-3.098-2.17-6.051-4.441-8.844-6.804h5.8V206.77h-5.8c2.793-2.361,5.746-4.634,8.844-6.805
					c24.792-17.353,59.036-28.086,96.863-28.086c37.825,0,72.075,10.733,96.862,28.086c6.199,4.335,11.803,9.083,16.729,14.189
					h-10.063v107.213h10.063c-4.926,5.105-10.529,9.854-16.729,14.188C367.252,352.908,333.002,363.643,295.177,363.643z"/>
				<path clip-path="url(#SVGID_5_)" fill="none" d="M295.177,361.43c-36.954,0-70.415-10.482-94.632-27.435
					c-3.025-2.116-5.908-4.341-8.634-6.649h3.36V208.175h-3.36c2.727-2.309,5.609-4.532,8.634-6.649
					c24.217-16.952,57.679-27.434,94.632-27.434c36.952,0,70.415,10.481,94.631,27.434c6.051,4.239,11.527,8.88,16.342,13.861
					h-7.445v104.748h7.445c-4.814,4.981-10.291,9.621-16.342,13.86C365.592,350.947,332.129,361.43,295.177,361.43z"/>
				<path clip-path="url(#SVGID_5_)" fill="none" d="M295.177,359.223c-36.081,0-68.753-10.237-92.396-26.787
					c-5.914-4.139-11.265-8.671-15.959-13.539h8.449V216.623h-8.449c4.694-4.867,10.046-9.399,15.959-13.537
					c23.643-16.551,56.315-26.788,92.396-26.788c36.084,0,68.75,10.237,92.401,26.788c5.908,4.138,11.258,8.67,15.953,13.537h-4.826
					v102.273h4.826c-4.695,4.868-10.045,9.4-15.953,13.539C363.928,348.985,331.262,359.223,295.177,359.223z"/>
				<path clip-path="url(#SVGID_5_)" fill="none" d="M295.177,358.176c-35.674,0-67.97-10.117-91.344-26.477
					c-5.848-4.09-11.134-8.574-15.773-13.383h7.211V217.203h-7.211c4.64-4.807,9.926-9.291,15.773-13.381
					c23.374-16.361,55.669-26.479,91.344-26.479c35.672,0,67.967,10.117,91.342,26.479c5.848,4.09,11.133,8.574,15.773,13.381
					h-3.588v101.113h3.588c-4.641,4.809-9.926,9.293-15.773,13.383C363.145,348.059,330.85,358.176,295.177,358.176z"/>
				<path clip-path="url(#SVGID_5_)" fill="none" d="M295.177,357.135c-35.262,0-67.187-10.003-90.291-26.178
					c-5.776-4.042-11.002-8.473-15.595-13.227h5.979v-99.94h-5.979c4.592-4.754,9.818-9.185,15.595-13.228
					c23.104-16.174,55.029-26.178,90.291-26.178c35.26,0,67.184,10.004,90.29,26.178c5.781,4.043,11.002,8.474,15.596,13.228h-2.357
					v99.94h2.357c-4.594,4.754-9.814,9.185-15.596,13.227C362.361,347.132,330.438,357.135,295.177,357.135z"/>
				<path clip-path="url(#SVGID_5_)" fill="none" d="M295.177,356.096c-34.85,0-66.397-9.891-89.239-25.873
					c-5.71-4-10.876-8.377-15.409-13.078h4.741v-98.769h-4.741c4.532-4.7,9.698-9.077,15.409-13.077
					c22.842-15.983,54.389-25.873,89.239-25.873c34.848,0,66.401,9.89,89.237,25.873c5.711,4,10.877,8.377,15.416,13.077h-1.125
					v98.769h1.125c-4.539,4.701-9.705,9.078-15.416,13.078C361.578,346.205,330.025,356.096,295.177,356.096z"/>
				<path clip-path="url(#SVGID_5_)" fill="none" d="M295.177,355.056c-34.437,0-65.62-9.771-88.187-25.569
					c-5.644-3.945-10.745-8.275-15.23-12.922h3.51v-97.608h-3.51c4.485-4.646,9.586-8.976,15.23-12.922
					c22.566-15.798,53.75-25.568,88.187-25.568c34.442,0,65.618,9.771,88.184,25.568c5.645,3.946,10.746,8.276,15.23,12.922
					c2.242,2.319,4.322,4.724,6.248,7.192h-6.135v83.223h6.135c-1.926,2.471-4.006,4.874-6.248,7.193
					c-4.484,4.646-9.586,8.977-15.23,12.922C360.795,345.284,329.619,355.056,295.177,355.056z"/>
				<path clip-path="url(#SVGID_5_)" fill="none" d="M295.177,354.009c-34.024,0-64.831-9.657-87.134-25.264
					c-5.573-3.899-10.614-8.174-15.044-12.761h2.272v-96.449h-2.272c4.431-4.586,9.471-8.861,15.044-12.76
					c22.303-15.606,53.11-25.264,87.134-25.264c34.028,0,64.834,9.657,87.133,25.264c11.145,7.803,20.174,17.096,26.404,27.41
					h-10.01v67.149h10.01c-6.23,10.314-15.26,19.606-26.404,27.41C360.012,344.352,329.205,354.009,295.177,354.009z"/>
				<path clip-path="url(#SVGID_5_)" fill="none" d="M295.177,352.969c-33.617,0-64.047-9.539-86.082-24.959
					c-5.501-3.856-10.488-8.078-14.865-12.611h1.041v-95.276h-1.041c4.377-4.532,9.364-8.755,14.865-12.611
					c22.034-15.421,52.464-24.958,86.082-24.958c33.616,0,64.051,9.537,86.079,24.958c11.016,7.708,19.926,16.893,26.09,27.081
					h-8.641v66.336h8.641c-6.164,10.189-15.074,19.375-26.09,27.082C359.229,343.43,328.793,352.969,295.177,352.969z"/>
				<path clip-path="url(#SVGID_5_)" fill="none" d="M295.177,351.922c-33.206,0-63.264-9.418-85.023-24.648
					c-5.441-3.808-10.362-7.977-14.685-12.461c-2.159-2.235-4.174-4.55-6.022-6.936h5.824v-80.232h-5.824
					c1.848-2.387,3.863-4.7,6.022-6.938c4.323-4.484,9.244-8.651,14.685-12.461c21.759-15.229,51.818-24.647,85.023-24.647
					c33.204,0,63.262,9.418,85.028,24.647c10.877,7.618,19.684,16.684,25.766,26.752h-7.266v65.523h7.266
					c-6.082,10.07-14.889,19.135-25.766,26.752C358.439,342.504,328.381,351.922,295.177,351.922z"/>
				<path clip-path="url(#SVGID_5_)" fill="none" d="M295.177,350.881c-32.792,0-62.481-9.303-83.971-24.348
					c-10.746-7.521-19.439-16.474-25.455-26.418h9.519v-64.71h-9.519c6.015-9.944,14.709-18.896,25.455-26.417
					c21.49-15.045,51.178-24.35,83.971-24.35c32.79,0,62.485,9.305,83.975,24.35c10.74,7.521,19.439,16.473,25.449,26.417h-5.896
					v64.71h5.896c-6.01,9.944-14.709,18.896-25.449,26.418C357.662,341.578,327.967,350.881,295.177,350.881z"/>
				<path clip-path="url(#SVGID_5_)" fill="none" d="M295.177,349.84c-32.38,0-61.698-9.189-82.918-24.042
					c-10.614-7.427-19.2-16.271-25.132-26.089h8.144v-63.896h-8.144c5.932-9.818,14.518-18.663,25.132-26.089
					c21.221-14.854,50.539-24.044,82.918-24.044c32.383,0,61.696,9.19,82.917,24.044c10.613,7.426,19.199,16.271,25.133,26.089
					h-4.521v63.896h4.521c-5.934,9.818-14.52,18.662-25.133,26.089C356.873,340.65,327.561,349.84,295.177,349.84z"/>
				<path clip-path="url(#SVGID_5_)" fill="none" d="M295.177,348.795c-31.968,0-60.914-9.071-81.866-23.732
					c-10.476-7.332-18.949-16.061-24.809-25.76h6.769v-63.084h-6.769c5.86-9.699,14.333-18.429,24.809-25.76
					c20.953-14.662,49.898-23.732,81.866-23.732c31.971,0,60.913,9.07,81.864,23.732c10.477,7.331,18.957,16.061,24.809,25.76
					h-3.145v63.084h3.145c-5.852,9.699-14.332,18.428-24.809,25.76C356.09,339.724,327.148,348.795,295.177,348.795z"/>
				<path clip-path="url(#SVGID_5_)" fill="none" d="M295.177,347.754c-31.562,0-60.13-8.951-80.813-23.434
					c-10.339-7.234-18.71-15.857-24.492-25.424h5.399v-62.271h-5.399c5.782-9.567,14.153-18.189,24.492-25.425
					c20.683-14.481,49.252-23.434,80.813-23.434c31.559,0,60.129,8.952,80.811,23.434c10.34,7.235,18.711,15.857,24.492,25.425
					h-1.775v62.271h1.775c-5.781,9.566-14.152,18.189-24.492,25.424C355.307,338.803,326.736,347.754,295.177,347.754z"/>
				<path clip-path="url(#SVGID_5_)" fill="none" d="M295.177,346.707c-31.148,0-59.347-8.838-79.755-23.122
					c-10.207-7.146-18.47-15.647-24.175-25.096h4.024v-61.458h-4.024c5.705-9.447,13.968-17.949,24.175-25.096
					c20.408-14.285,48.607-23.122,79.755-23.122c62.293,0,112.797,35.345,112.797,78.947
					C407.975,311.362,357.471,346.707,295.177,346.707z"/>
				<path clip-path="url(#SVGID_5_)" fill="none" d="M295.177,345.667c-30.735,0-58.564-8.718-78.703-22.817
					c-10.075-7.051-18.226-15.445-23.858-24.768h2.655v-60.644h-2.655c5.632-9.321,13.783-17.718,23.858-24.767
					c20.139-14.101,47.968-22.818,78.703-22.818c61.475,0,111.307,34.879,111.307,77.907S356.652,345.667,295.177,345.667z"/>
				<path clip-path="url(#SVGID_5_)" fill="none" d="M295.177,344.627c-60.651,0-109.814-34.418-109.814-76.866
					s49.163-76.867,109.814-76.867c60.649,0,109.819,34.419,109.819,76.867S355.826,344.627,295.177,344.627z"/>
				<path clip-path="url(#SVGID_5_)" fill="none" d="M295.177,343.581c-59.826,0-108.325-33.946-108.325-75.82
					s48.5-75.82,108.325-75.82c59.831,0,108.323,33.946,108.323,75.82S355.008,343.581,295.177,343.581z"/>
				<ellipse clip-path="url(#SVGID_5_)" fill="none" cx="295.177" cy="267.76" rx="106.837" ry="74.78"/>
				<path clip-path="url(#SVGID_5_)" fill="none" d="M295.177,341.494c-58.181,0-105.348-33.008-105.348-73.733
					c0-40.727,47.167-73.733,105.348-73.733c58.18,0,105.346,33.007,105.346,73.733
					C400.523,308.486,353.357,341.494,295.177,341.494z"/>
				<path clip-path="url(#SVGID_5_)" fill="none" d="M295.177,340.453c-57.356,0-103.859-32.547-103.859-72.692
					c0-40.147,46.503-72.692,103.859-72.692c57.36,0,103.858,32.545,103.858,72.692
					C399.035,307.906,352.537,340.453,295.177,340.453z"/>
				<ellipse clip-path="url(#SVGID_5_)" fill="none" cx="295.177" cy="267.76" rx="102.37" ry="71.652"/>
				<path clip-path="url(#SVGID_5_)" fill="none" d="M295.177,338.372c-55.712,0-100.875-31.62-100.875-70.611
					c0-38.993,45.163-70.612,100.875-70.612c55.715,0,100.879,31.619,100.879,70.612
					C396.057,306.752,350.893,338.372,295.177,338.372z"/>
				<path clip-path="url(#SVGID_5_)" fill="none" d="M295.177,337.326c-54.893,0-99.386-31.148-99.386-69.565
					c0-38.419,44.494-69.565,99.386-69.565c54.891,0,99.391,31.146,99.391,69.565C394.568,306.178,350.068,337.326,295.177,337.326z
					"/>
				<ellipse clip-path="url(#SVGID_5_)" fill="none" cx="295.177" cy="267.76" rx="95.685" ry="66.976"/>
				<path clip-path="url(#SVGID_5_)" fill="none" d="M295.177,332.147c-50.803,0-91.989-28.827-91.989-64.387
					c0-35.561,41.187-64.388,91.989-64.388c50.801,0,91.987,28.827,91.987,64.388C387.164,303.32,345.979,332.147,295.177,332.147z"
					/>
				<path clip-path="url(#SVGID_5_)" fill="none" d="M295.177,329.559c-48.757,0-88.288-27.673-88.288-61.798
					s39.531-61.798,88.288-61.798c48.756,0,88.286,27.673,88.286,61.798S343.934,329.559,295.177,329.559z"/>
				<path clip-path="url(#SVGID_5_)" fill="none" d="M295.177,326.964c-46.713,0-84.586-26.508-84.586-59.203
					c0-32.696,37.874-59.203,84.586-59.203c46.717,0,84.584,26.507,84.584,59.203C379.762,300.456,341.895,326.964,295.177,326.964z
					"/>
				<ellipse clip-path="url(#SVGID_5_)" fill="none" cx="295.177" cy="267.761" rx="80.886" ry="56.614"/>
				<ellipse clip-path="url(#SVGID_5_)" fill="none" cx="295.177" cy="267.761" rx="77.184" ry="54.024"/>
				<ellipse clip-path="url(#SVGID_5_)" fill="none" cx="295.177" cy="267.76" rx="73.483" ry="51.435"/>
				<path clip-path="url(#SVGID_5_)" fill="none" d="M295.177,316.606c-38.539,0-69.781-21.872-69.781-48.846
					s31.243-48.847,69.781-48.847c38.543,0,69.786,21.873,69.786,48.847S333.721,316.606,295.177,316.606z"/>
				<path clip-path="url(#SVGID_5_)" fill="none" d="M295.177,314.012c-36.499,0-66.081-20.707-66.081-46.251
					c0-25.545,29.582-46.252,66.081-46.252c36.499,0,66.084,20.707,66.084,46.252C361.262,293.305,331.676,314.012,295.177,314.012z
					"/>
				<path clip-path="url(#SVGID_5_)" fill="none" d="M295.177,311.422c-34.455,0-62.379-19.546-62.379-43.661
					s27.924-43.663,62.379-43.663c34.452,0,62.383,19.548,62.383,43.663S329.629,311.422,295.177,311.422z"/>
				<path clip-path="url(#SVGID_5_)" fill="none" d="M295.177,308.833c-32.41,0-58.684-18.387-58.684-41.072
					c0-22.687,26.274-41.073,58.684-41.073c32.407,0,58.682,18.387,58.682,41.073C353.859,290.446,327.584,308.833,295.177,308.833z
					"/>
				<path clip-path="url(#SVGID_5_)" fill="none" d="M295.177,306.244c-30.364,0-54.982-17.227-54.982-38.483
					s24.619-38.484,54.982-38.484s54.981,17.228,54.981,38.484S325.541,306.244,295.177,306.244z"/>
				<path clip-path="url(#SVGID_5_)" fill="none" d="M295.177,303.656c-28.32,0-51.281-16.074-51.281-35.896
					c0-19.823,22.961-35.896,51.281-35.896c28.319,0,51.28,16.072,51.28,35.896C346.457,287.582,323.496,303.656,295.177,303.656z"
					/>
				<path clip-path="url(#SVGID_5_)" fill="none" d="M295.177,301.061c-26.274,0-47.58-14.907-47.58-33.3
					c0-18.394,21.305-33.3,47.58-33.3c26.278,0,47.577,14.906,47.577,33.3C342.754,286.153,321.455,301.061,295.177,301.061z"/>
				<path clip-path="url(#SVGID_5_)" fill="none" d="M295.177,298.471c-24.236,0-43.878-13.746-43.878-30.71
					s19.642-30.712,43.878-30.712c24.235,0,43.875,13.748,43.875,30.712S319.412,298.471,295.177,298.471z"/>
				<path clip-path="url(#SVGID_5_)" fill="none" d="M295.177,295.883c-22.19,0-40.177-12.594-40.177-28.122
					s17.986-28.122,40.177-28.122c22.19,0,40.18,12.594,40.18,28.122S317.367,295.883,295.177,295.883z"/>
				<ellipse clip-path="url(#SVGID_5_)" fill="none" cx="295.177" cy="267.76" rx="36.477" ry="25.533"/>
			</g>
		</g>
		
			<radialGradient id="SVGID_6_" cx="286.3735" cy="151.0327" r="199.5064" gradientTransform="matrix(0.7197 0 0 0.6126 90.3027 109.4907)" gradientUnits="userSpaceOnUse">
			<stop  offset="0" style="stop-color:#FFFFFF"/>
			<stop  offset="0.5607" style="stop-color:#E8E8E7"/>
			<stop  offset="0.7913" style="stop-color:#DFDFDE"/>
			<stop  offset="1" style="stop-color:#D0D4D8"/>
		</radialGradient>
		<path fill="url(#SVGID_6_)" d="M383.297,251.115c0,40.58-38.66,73.469-86.309,73.469c-47.68,0-86.311-32.889-86.311-73.469
			c0-40.576,38.63-73.467,86.311-73.467C344.637,177.648,383.297,210.539,383.297,251.115z"/>
		<linearGradient id="SVGID_7_" gradientUnits="userSpaceOnUse" x1="296.9805" y1="257.0781" x2="296.9805" y2="182.2852">
			<stop  offset="0" style="stop-color:#EAEAE9"/>
			<stop  offset="0.1187" style="stop-color:#EFEFEE"/>
			<stop  offset="0.5638" style="stop-color:#FBFBFB"/>
			<stop  offset="0.9785" style="stop-color:#FFFFFF"/>
		</linearGradient>
		<path fill="url(#SVGID_7_)" d="M359.48,219.68c0,20.656-27.992,37.398-62.493,37.398c-34.537,0-62.508-16.742-62.508-37.398
			c0-20.646,27.971-37.395,62.508-37.395C331.488,182.285,359.48,199.033,359.48,219.68z"/>
	</g>
</g>
<linearGradient id="SVGID_8_" gradientUnits="userSpaceOnUse" x1="302.3789" y1="454.1904" x2="306.3789" y2="377.19">
	<stop  offset="0" style="stop-color:#FFFFFF"/>
	<stop  offset="0.4534" style="stop-color:#FDFDFD"/>
	<stop  offset="0.6168" style="stop-color:#F7F6F7"/>
	<stop  offset="0.7332" style="stop-color:#ECEBEC"/>
	<stop  offset="0.8273" style="stop-color:#DCDADD"/>
	<stop  offset="0.9079" style="stop-color:#C7C4C9"/>
	<stop  offset="0.978" style="stop-color:#AEA9B0"/>
	<stop  offset="1" style="stop-color:#A49FA7"/>
</linearGradient>
<path opacity="0.6" fill="url(#SVGID_8_)" d="M403.723,451.781c-12.254-44.395-52.926-77-101.219-77
	c-48.292,0-88.963,32.605-101.218,77"/>
<g>
	<radialGradient id="SVGID_9_" cx="299.9893" cy="299.7998" r="51.5317" gradientUnits="userSpaceOnUse">
		<stop  offset="0" style="stop-color:#FFFFFF"/>
		<stop  offset="0.42" style="stop-color:#FFCC00"/>
		<stop  offset="1" style="stop-color:#E85F00"/>
	</radialGradient>
	<path fill-rule="evenodd" clip-rule="evenodd" fill="url(#SVGID_9_)" d="M340.515,301.923c-5.115-29.075,2.541-31.991,2.874-35.189
		c-15.439,1.078-9.607,22.476-13.919,25.446c-4.222-3.342-3.577-7.797-6.99-11.713c-3.75-4.304-1.028-7.886-1.428-13.346
		c-1.053,3.706-1.624,6.109-5.027,8.866c-1.355,1.1-3.582,1.632-3.168,4.031c0.366,2.136,2.582,1.843,3.52,3.321
		c2.234,3.525-1.181,5.07-4.58,4.588c-3.116-0.443-6.885-2.75-8.537-5.477c-2.813-4.632-2.342-12.589,1.697-16.349
		c5.091-4.744,9.998-8.57,6.041-16.246c-2.904-5.637-9.156-8.411-14.641-10.772c-5.911-2.544-8.703-5.656-11.429-11.462
		c0.641,1.829-0.059,4.76,0.647,6.804c0.714,2.062,2.583,4.001,4.041,5.737c3.225,3.85,6.782,6.748,4.156,12.198
		c-2.009,4.167-8.267,4.75-9.565,9.346c-1.675,5.944,4.259,9.349,6.153,14.011c2.341,5.774-3.938,16.249-9.818,9.317
		c-4.109-4.84,2.661-10.372-1.683-15.159c-3.558-3.922-12.32-4.43-10.141-11.751c1.534-5.147,8.464-8.052,4.678-13.706
		c-1.192,4.264-2.142,5.688-4.958,9.119c-1.843,2.242-4.553,6.145-5.037,8.966c-1.25,7.312,5.933,13.582,5.307,21.105
		c-0.509,6.131-5.827,9.068-8.35,14.362c-2.517,5.282-2.837,12.159-1.624,17.954c0,0,2.429,24.416,36.539,29.443
		C295.273,345.369,343.745,348.242,340.515,301.923z"/>
	<path opacity="0.2" fill-rule="evenodd" clip-rule="evenodd" fill="#FFCC00" d="M328.663,321.031
		c4.508-5.057,3.693-9.807,3.249-16.303c-2.221,4.949-8.259,9.864-7.914,1.361c0.109-2.715,0.678-4.732-0.351-7.389
		c-1.053-2.707-3.176-4.408-3.591-7.422c-0.911,3.087-2.537,4.832-4.05,7.609c-1.446,2.662-0.315,5.567-1.35,8.321
		c-0.731,1.96-4.768,6.474-7.179,6.276c-2.912-0.241-1.256-3.689-2.883-5.912c-3.024-4.129-11.931-3.366-9.054-10.915
		c0.898-2.361,3.542-3.896,3.688-6.633c0.115-2.239-2.13-6.263-3.258-8.085c0.033,2.371,0.469,5.258-0.681,7.337
		c-1.611,2.911-3.476,2.426-3.611,6.353c-0.196,5.811,2.054,15.863-6.831,11.494c-5.907-2.903-4.99-6.184-6.794-11.516
		c-1.524-4.492-6.507-5.762-5.766-11.613c0.672,3.954-2.968,7.107-4.426,10.905c0.692,0.2,1.392,0.349,2.103,0.446
		c-0.623,0.204-1.252,0.392-1.888,0.564c-0.479,4.694,3.146,5.473,4.659,8.957c1.639,3.769-1.184,7.778-1.165,11.764
		c0,0-2.153,18.22,24.415,20.461C295.987,337.094,310.35,341.575,328.663,321.031z"/>
</g>
</svg>
