<?xml version="1.0" encoding="utf-8"?>
<!-- Generator: Adobe Illustrator 16.0.0, SVG Export Plug-In . SVG Version: 6.00 Build 0)  -->
<!DOCTYPE svg PUBLIC "-//W3C//DTD SVG 1.1//EN" "http://www.w3.org/Graphics/SVG/1.1/DTD/svg11.dtd">
<svg version="1.1" id="Layer_1" xmlns="http://www.w3.org/2000/svg" xmlns:xlink="http://www.w3.org/1999/xlink" x="0px" y="0px"
	 width="720px" height="1280px" viewBox="0 0 720 1280" enable-background="new 0 0 720 1280" xml:space="preserve">
<path fill="#FED09E" stroke="#000000" stroke-width="2" stroke-miterlimit="10" d="M298.303,558.318h83.545h16.002
	c2.846,0,5.158-2.414,5.158-5.386v-9.34c0-2.973-2.313-5.386-5.158-5.386h-6.717c1.021-4.256,1.559-8.705,1.559-13.284
	c0-30.347-23.553-54.941-52.616-54.941c-29.062,0-52.615,24.594-52.615,54.941c0,4.579,0.537,9.028,1.557,13.284h-6.716
	c-2.848,0-5.158,2.413-5.158,5.386v9.34c0,2.973,2.311,5.386,5.158,5.386H298.303z"/>
<g>
	
		<rect x="267.087" y="482.708" transform="matrix(0.5699 -0.8217 0.8217 0.5699 -249.0205 517.0721)" fill="#754C29" stroke="#000000" stroke-width="2" stroke-miterlimit="10" width="204.648" height="27.399"/>
	<polygon fill="#754C29" stroke="#000000" stroke-width="2" stroke-miterlimit="10" points="429.552,413.593 402.188,425.109 
		408.547,415.938 423.723,409.55 	"/>
	<polygon fill="#754C29" stroke="#000000" stroke-width="2" stroke-miterlimit="10" points="438.98,420.132 437.019,422.962 
		389.938,442.771 396.298,433.6 434.946,417.333 	"/>
	<polygon fill="#754C29" stroke="#000000" stroke-width="2" stroke-miterlimit="10" points="431.128,431.455 424.77,440.625 
		377.685,460.44 384.045,451.269 	"/>
	<polygon fill="#754C29" stroke="#000000" stroke-width="2" stroke-miterlimit="10" points="418.879,449.117 412.52,458.289 
		365.435,478.103 371.795,468.931 	"/>
	<polygon fill="#754C29" stroke="#000000" stroke-width="2" stroke-miterlimit="10" points="406.629,466.78 400.266,475.957 
		353.182,495.771 359.545,486.595 	"/>
	<polygon fill="#754C29" stroke="#000000" stroke-width="2" stroke-miterlimit="10" points="394.377,484.449 388.017,493.619 
		340.933,513.434 347.292,504.262 	"/>
	<polygon fill="#754C29" stroke="#000000" stroke-width="2" stroke-miterlimit="10" points="382.127,502.112 375.767,511.282 
		328.683,531.097 335.043,521.925 	"/>
	<polygon fill="#754C29" stroke="#000000" stroke-width="2" stroke-miterlimit="10" points="369.873,519.78 363.514,528.951 
		316.43,548.765 322.793,539.588 	"/>
	<polygon fill="#754C29" stroke="#000000" stroke-width="2" stroke-miterlimit="10" points="357.624,537.444 351.264,546.614 
		304.18,566.429 310.539,557.258 	"/>
	<polygon fill="#754C29" stroke="#000000" stroke-width="2" stroke-miterlimit="10" points="345.375,555.104 339.014,564.276 
		307.094,577.711 301.262,573.668 	"/>
	<polygon fill="#754C29" stroke="#000000" stroke-width="2" stroke-miterlimit="10" points="333.12,572.775 326.761,581.945 
		318.322,585.499 312.488,581.453 	"/>
</g>
<path fill="#FCBB76" stroke="#000000" stroke-width="2" stroke-miterlimit="10" d="M395.52,800.859l-109.688-0.25
	c-1.734-0.003-3.391-1.391-3.699-3.097l-6.639-36.691l-23.605-130.474l178.349,0.405l-31.006,167.027
	C398.916,799.484,397.254,800.863,395.52,800.859z"/>
<path fill="#FFE6CB" stroke="#000000" stroke-width="2" stroke-miterlimit="10" d="M446.79,622.812c0,4.162-3.374,7.536-7.536,7.536
	h-196.77c-4.162,0-7.536-3.374-7.536-7.536v-15.91c0-4.162,3.374-7.536,7.536-7.536h196.77c4.162,0,7.536,3.374,7.536,7.536V622.812
	z"/>
<g>
	<path fill="#39B54A" stroke="#000000" stroke-width="2" stroke-miterlimit="10" d="M273.731,598.815h68.882
		c2.406,0,4.357-1.875,4.357-4.187v-7.26c0-2.311-1.951-4.186-4.357-4.186h-5.672c0.862-3.308,1.316-6.766,1.316-10.324
		c0-23.587-19.894-42.704-44.44-42.704c-24.547,0-44.44,19.116-44.44,42.704c0,3.559,0.453,7.016,1.315,10.324h-5.672
		c-2.406,0-4.357,1.875-4.357,4.186v7.26c0,2.311,1.951,4.187,4.357,4.187h8.958"/>
	<path fill="#39B54A" stroke="#000000" stroke-width="2" stroke-miterlimit="10" d="M273.731,598.815V609.7
		c0,2.319-1.952,4.187-4.356,4.187h-11.041c-2.405,0-4.357-1.867-4.357-4.187v-10.885"/>
</g>
<g>
	<defs>
		<path id="SVGID_1_" d="M395.52,800.859l-109.688-0.25c-1.734-0.003-3.391-1.391-3.699-3.097l-6.639-36.691l-23.605-130.474
			l178.349,0.404l-31.006,167.027C398.916,799.484,397.254,800.863,395.52,800.859z"/>
	</defs>
	<clipPath id="SVGID_2_">
		<use xlink:href="#SVGID_1_"  overflow="visible"/>
	</clipPath>
	
		<line clip-path="url(#SVGID_2_)" fill="none" stroke="#000000" stroke-width="2" stroke-miterlimit="10" x1="218.487" y1="662.926" x2="463.639" y2="468.926"/>
	
		<line clip-path="url(#SVGID_2_)" fill="#FFFFFF" stroke="#000000" stroke-width="2" stroke-miterlimit="10" x1="218.487" y1="697.409" x2="463.639" y2="503.409"/>
	
		<line clip-path="url(#SVGID_2_)" fill="#FFFFFF" stroke="#000000" stroke-width="2" stroke-miterlimit="10" x1="218.487" y1="731.893" x2="463.639" y2="537.893"/>
	
		<line clip-path="url(#SVGID_2_)" fill="#FFFFFF" stroke="#000000" stroke-width="2" stroke-miterlimit="10" x1="218.487" y1="766.376" x2="463.639" y2="572.376"/>
	
		<line clip-path="url(#SVGID_2_)" fill="#FFFFFF" stroke="#000000" stroke-width="2" stroke-miterlimit="10" x1="218.487" y1="800.859" x2="463.639" y2="606.859"/>
	
		<line clip-path="url(#SVGID_2_)" fill="#FFFFFF" stroke="#000000" stroke-width="2" stroke-miterlimit="10" x1="218.487" y1="835.343" x2="463.639" y2="641.343"/>
	
		<line clip-path="url(#SVGID_2_)" fill="#FFFFFF" stroke="#000000" stroke-width="2" stroke-miterlimit="10" x1="218.487" y1="869.826" x2="463.639" y2="675.826"/>
	
		<line clip-path="url(#SVGID_2_)" fill="#FFFFFF" stroke="#000000" stroke-width="2" stroke-miterlimit="10" x1="218.487" y1="904.31" x2="463.639" y2="710.31"/>
	
		<line clip-path="url(#SVGID_2_)" fill="#FFFFFF" stroke="#000000" stroke-width="2" stroke-miterlimit="10" x1="218.487" y1="938.793" x2="463.639" y2="744.793"/>
	
		<line clip-path="url(#SVGID_2_)" fill="none" stroke="#000000" stroke-width="2" stroke-miterlimit="10" x1="463.638" y1="662.926" x2="218.486" y2="468.926"/>
	
		<line clip-path="url(#SVGID_2_)" fill="#FFFFFF" stroke="#000000" stroke-width="2" stroke-miterlimit="10" x1="463.638" y1="697.409" x2="218.486" y2="503.409"/>
	
		<line clip-path="url(#SVGID_2_)" fill="#FFFFFF" stroke="#000000" stroke-width="2" stroke-miterlimit="10" x1="463.638" y1="731.893" x2="218.486" y2="537.893"/>
	
		<line clip-path="url(#SVGID_2_)" fill="#FFFFFF" stroke="#000000" stroke-width="2" stroke-miterlimit="10" x1="463.638" y1="766.376" x2="218.486" y2="572.376"/>
	
		<line clip-path="url(#SVGID_2_)" fill="#FFFFFF" stroke="#000000" stroke-width="2" stroke-miterlimit="10" x1="463.638" y1="800.859" x2="218.486" y2="606.859"/>
	
		<line clip-path="url(#SVGID_2_)" fill="#FFFFFF" stroke="#000000" stroke-width="2" stroke-miterlimit="10" x1="463.638" y1="835.343" x2="218.486" y2="641.343"/>
	
		<line clip-path="url(#SVGID_2_)" fill="#FFFFFF" stroke="#000000" stroke-width="2" stroke-miterlimit="10" x1="463.638" y1="869.826" x2="218.486" y2="675.826"/>
	
		<line clip-path="url(#SVGID_2_)" fill="#FFFFFF" stroke="#000000" stroke-width="2" stroke-miterlimit="10" x1="463.638" y1="904.31" x2="218.486" y2="710.31"/>
	
		<line clip-path="url(#SVGID_2_)" fill="#FFFFFF" stroke="#000000" stroke-width="2" stroke-miterlimit="10" x1="463.638" y1="938.793" x2="218.486" y2="744.793"/>
</g>
<path fill="#39B54A" stroke="#000000" stroke-width="2" stroke-miterlimit="10" d="M287.71,800.86H246.5
	c0-11.011,9.22-19.931,20.6-19.931c4.84,0,9.29,1.61,12.81,4.32c4.69,3.6,7.72,9.14,7.79,15.36
	C287.71,800.69,287.71,800.78,287.71,800.86z"/>
<path fill="#EF4136" stroke="#000000" stroke-width="2" stroke-miterlimit="10" d="M411.09,800.86h-54.71v-0.091
	c0.05-14.42,12.28-26.09,27.36-26.09c7.14,0,13.63,2.62,18.5,6.9c0.54,0.47,1.06,0.96,1.55,1.479
	C408.32,787.72,411.09,793.98,411.09,800.86z"/>
<path fill="#EF4136" stroke="#000000" stroke-width="2" stroke-miterlimit="10" d="M433.65,800.86h-41.21v-0.011
	c0-6.97,3.699-13.1,9.31-16.659c0.65-0.421,1.33-0.801,2.04-1.131c2.78-1.369,5.92-2.13,9.25-2.13
	C424.42,780.93,433.65,789.85,433.65,800.86z"/>
<path fill="#FFFFFF" stroke="#000000" stroke-miterlimit="10" d="M232.5,800.859"/>
<polyline fill="none" stroke="#000000" stroke-miterlimit="10" points="246.5,800.86 287.71,800.86 356.38,800.86 392.44,800.86 
	395.52,800.86 411.09,800.86 433.65,800.86 "/>
<path fill="none" stroke="#FFFFFF" stroke-width="2" stroke-linecap="round" stroke-miterlimit="10" d="M398.34,538.154
	c10.827,10.056,14.703,15.223,14.703,15.223l2.457,3.167l1.5,2.833"/>
<g>
	
		<line fill="#EF4136" stroke="#000000" stroke-width="2" stroke-miterlimit="10" x1="402.899" y1="598.744" x2="390.849" y2="598.744"/>
	<path fill="#EF4136" stroke="#000000" stroke-width="2" stroke-miterlimit="10" d="M376.628,598.744h-38.513h-14.752
		c-2.625,0-4.756-1.944-4.756-4.34v-7.526c0-2.395,2.13-4.339,4.756-4.339h6.192c-0.941-3.429-1.437-7.014-1.437-10.703
		c0-24.452,21.716-44.268,48.51-44.268s48.509,19.816,48.509,44.268c0,3.689-0.492,7.273-1.436,10.703h6.192
		c2.625,0,4.756,1.944,4.756,4.339v7.526c0,2.396-2.131,4.34-4.756,4.34h-6.706"/>
	<path fill="#EF4136" stroke="#000000" stroke-width="2" stroke-miterlimit="10" d="M423.188,598.744v14.252
		c0,2.396-2.131,4.34-4.755,4.34h-10.777c-2.625,0-4.756-1.944-4.756-4.34v-14.252"/>
	<path fill="#EF4136" stroke="#000000" stroke-width="2" stroke-miterlimit="10" d="M390.849,598.744v33.921
		c0,2.405-2.131,4.34-4.756,4.34h-4.709c-2.625,0-4.756-1.936-4.756-4.34v-33.921"/>
</g>
<g opacity="0.3">
	<g>
		
			<line fill="#FFFFFF" stroke="#000000" stroke-width="2" stroke-miterlimit="10" x1="402.898" y1="599.817" x2="390.848" y2="599.817"/>
		<path fill="#FFFFFF" stroke="#000000" stroke-width="2" stroke-miterlimit="10" d="M434.648,587.957v7.52
			c0,2.4-2.131,4.34-4.761,4.34H323.358c-2.62,0-4.75-1.94-4.75-4.34v-3.4l16.39-2.7l8-9.16l28.5,9.16c0,0,16.5,1.7,19.35-50.86
			c0,0,23.271,69.52,30.351,16.9c2.54,5.37,3.939,11.28,3.939,17.5c0,3.68-0.5,7.27-1.439,10.7h6.189
			C432.518,583.617,434.648,585.557,434.648,587.957z"/>
		<path fill="#FFFFFF" stroke="#000000" stroke-width="2" stroke-miterlimit="10" d="M423.188,599.817v14.26
			c0,2.39-2.131,4.34-4.761,4.34h-10.77c-2.63,0-4.76-1.95-4.76-4.34v-14.26H423.188z"/>
		<path fill="#FFFFFF" stroke="#000000" stroke-width="2" stroke-miterlimit="10" d="M390.848,599.817v33.92
			c0,2.41-2.13,4.34-4.76,4.34h-4.71c-1.54,0-2.899-0.66-3.77-1.7c-0.62-0.73-0.98-1.65-0.98-2.64v-33.92H390.848z"/>
	</g>
	<path fill="#FFFFFF" stroke="#000000" stroke-width="2" stroke-miterlimit="10" d="M434.648,587.957v7.52
		c0,2.4-2.131,4.34-4.761,4.34h-6.699v14.26c0,2.39-2.131,4.34-4.761,4.34h-10.77c-2.63,0-4.76-1.95-4.76-4.34v-14.26h-12.051v33.92
		c0,2.41-2.13,4.34-4.76,4.34h-3.56c-1.87-0.68-3.561-1.27-4.92-1.7c-0.62-0.73-0.98-1.65-0.98-2.64v-33.92h-53.27
		c-2.62,0-4.75-1.94-4.75-4.34v-3.4l16.39-2.7l8-9.16l28.5,9.16c0,0,16.5,1.7,19.35-50.86c0,0,23.271,69.52,30.351,16.9
		c2.54,5.37,3.939,11.28,3.939,17.5c0,3.68-0.5,7.27-1.439,10.7h6.189C432.518,583.617,434.648,585.557,434.648,587.957z"/>
</g>
<path fill="#ED1C24" stroke="#000000" stroke-width="3" stroke-miterlimit="10" d="M330.231,488.201
	c2.534,9.687-3.979,19.421-14.547,21.743c-10.567,2.322-21.188-3.648-23.721-13.334c-2.534-9.686,3.979-19.42,14.546-21.743
	C317.078,472.545,327.698,478.515,330.231,488.201z"/>
<path fill="#FFE6CB" stroke="#000000" stroke-width="2" stroke-miterlimit="10" d="M322.314,478.486
	c-3.076-0.767-6.398-0.851-9.711-0.123c-10.564,2.321-17.081,12.055-14.547,21.743c1.203,4.599,4.222,8.351,8.196,10.782
	c-6.725-1.664-12.271-6.564-14.01-13.209c-2.534-9.688,3.977-19.421,14.547-21.744C312.347,474.714,317.921,475.787,322.314,478.486
	z"/>
<path fill="#EF4136" stroke="#000000" stroke-width="2" stroke-miterlimit="10" d="M331.926,489.826
	c2.534,9.688-3.977,19.42-14.547,21.743c-5.552,1.22-11.124,0.153-15.525-2.551c3.075,0.766,6.398,0.851,9.711,0.123
	c10.57-2.322,17.08-12.061,14.547-21.743c-1.202-4.594-4.222-8.352-8.196-10.783C324.641,478.279,330.187,483.175,331.926,489.826z"
	/>
<path fill="none" stroke="#000000" stroke-width="2" stroke-miterlimit="10" d="M308.356,481.461
	c-1.694-15.883,8.061-21.458,5.701-22.206c-0.788-0.249-2.92,0.039-7.272,0.659"/>
</svg>
