<?xml version="1.0" encoding="utf-8"?>
<!-- Generator: Adobe Illustrator 16.0.0, SVG Export Plug-In . SVG Version: 6.00 Build 0)  -->
<!DOCTYPE svg PUBLIC "-//W3C//DTD SVG 1.1//EN" "http://www.w3.org/Graphics/SVG/1.1/DTD/svg11.dtd">
<svg version="1.1" id="Layer_1" xmlns="http://www.w3.org/2000/svg" xmlns:xlink="http://www.w3.org/1999/xlink" x="0px" y="0px"
	 width="595.28px" height="595.28px" viewBox="0 0 595.28 595.28" enable-background="new 0 0 595.28 595.28" xml:space="preserve">
<g>
	
		<radialGradient id="SVGID_1_" cx="302" cy="37876.3594" r="91.0473" gradientTransform="matrix(1 0 0 0.2287 0 -8292)" gradientUnits="userSpaceOnUse">
		<stop  offset="0" style="stop-color:#BDD4DF"/>
		<stop  offset="0.865" style="stop-color:#FFFFFF"/>
	</radialGradient>
	<path fill="url(#SVGID_1_)" d="M398.044,370.322c0,15.625-43.002,28.295-96.046,28.295c-53.043,0-96.041-12.67-96.041-28.295
		c0-15.624,42.998-28.294,96.041-28.294C355.042,342.028,398.044,354.698,398.044,370.322z"/>
	<g>
		<g>
			
				<radialGradient id="SVGID_2_" cx="327.3477" cy="84.835" r="124.0232" gradientTransform="matrix(0.8078 0 0 0.8078 32.5435 206.0054)" gradientUnits="userSpaceOnUse">
				<stop  offset="0" style="stop-color:#E9E8E8"/>
				<stop  offset="0.6345" style="stop-color:#E6E6E5"/>
				<stop  offset="0.9594" style="stop-color:#E3E2E2"/>
			</radialGradient>
			<path fill="url(#SVGID_2_)" d="M397.161,274.537c0,55.328-44.857,100.183-100.187,100.183
				c-55.33,0-100.188-44.854-100.188-100.183c0-55.334,44.857-100.188,100.188-100.188
				C352.304,174.35,397.161,219.203,397.161,274.537z"/>
			<g>
				<g>
					<defs>
						<path id="SVGID_3_" d="M397.161,274.537c0,55.328-44.857,100.183-100.187,100.183c-55.33,0-100.188-44.854-100.188-100.183
							c0-55.334,44.857-100.188,100.188-100.188C352.304,174.35,397.161,219.203,397.161,274.537z"/>
					</defs>
					<clipPath id="SVGID_4_">
						<use xlink:href="#SVGID_3_"  overflow="visible"/>
					</clipPath>
					<rect x="196.789" y="174.349" clip-path="url(#SVGID_4_)" fill="none" width="200.372" height="200.372"/>
					<path clip-path="url(#SVGID_4_)" fill="none" d="M295.164,376.252H228.08v2.662c-10.309-3.057-20.104-6.793-29.275-11.123
						c-4.587-2.171-9.012-4.484-13.27-6.948h9.723V174.678h-9.723c4.258-2.464,8.683-4.777,13.27-6.949v5.09h192.72v-5.09
						c4.586,2.172,9.01,4.485,13.268,6.949h-6.1v186.165h6.1c-4.258,2.464-8.682,4.777-13.268,6.948
						c-9.168,4.33-18.969,8.066-29.277,11.123v-2.662H295.164z"/>
					<path clip-path="url(#SVGID_4_)" fill="none" d="M295.164,380.432c-22.227,0-43.399-3.151-62.66-8.85
						c-9.626-2.857-18.781-6.344-27.344-10.393c-4.281-2.021-8.419-4.191-12.389-6.486h2.486V180.818h-2.486
						c3.97-2.296,8.107-4.467,12.389-6.488c8.563-4.047,17.718-7.533,27.344-10.392v8.88h125.319v-8.88
						c19.26,5.704,36.6,13.956,51.166,24.151h-10.297v159.342h10.297C379.862,367.822,339.615,380.432,295.164,380.432z"/>
					<path clip-path="url(#SVGID_4_)" fill="none" d="M295.164,372.479c-41.313,0-78.715-11.721-105.789-30.675h5.883V193.717
						h-5.883c27.074-18.955,64.476-30.675,105.789-30.675c41.313,0,78.714,11.72,105.788,30.675h-2.26v148.088h2.26
						C373.878,360.759,336.477,372.479,295.164,372.479z"/>
					<path clip-path="url(#SVGID_4_)" fill="none" d="M295.164,370.267c-40.439,0-77.053-11.475-103.559-30.023h3.652V195.277
						h-3.652c26.506-18.549,63.119-30.023,103.559-30.023c40.445,0,77.058,11.475,103.558,30.023h-0.029v144.966h0.029
						C372.222,358.792,335.609,370.267,295.164,370.267z"/>
					<path clip-path="url(#SVGID_4_)" fill="none" d="M295.164,368.061c-39.572,0-75.396-11.23-101.322-29.377h1.416V196.838h-1.416
						c25.926-18.148,61.75-29.377,101.322-29.377s75.396,11.229,101.327,29.377c3.24,2.271,6.328,4.646,9.246,7.121h-7.045v127.603
						h7.045c-2.918,2.476-6.006,4.85-9.246,7.122C370.56,356.83,334.736,368.061,295.164,368.061z"/>
					<path clip-path="url(#SVGID_4_)" fill="none" d="M295.164,365.849c-38.7,0-73.733-10.979-99.092-28.731
						c-3.17-2.213-6.189-4.539-9.048-6.961h8.233V205.364h-8.233c2.858-2.422,5.878-4.747,9.048-6.96
						c25.358-17.754,60.392-28.731,99.092-28.731c38.699,0,73.733,10.978,99.093,28.731c3.174,2.213,6.193,4.538,9.047,6.96h-4.611
						v124.792h4.611c-2.854,2.422-5.873,4.748-9.047,6.961C368.897,354.869,333.863,365.849,295.164,365.849z"/>
					<path clip-path="url(#SVGID_4_)" fill="none" d="M295.164,363.643c-37.826,0-72.07-10.734-96.862-28.088
						c-3.098-2.17-6.051-4.441-8.844-6.804h5.8V206.77h-5.8c2.793-2.361,5.746-4.634,8.844-6.805
						c24.792-17.353,59.036-28.086,96.862-28.086s72.075,10.733,96.862,28.086c6.199,4.335,11.803,9.083,16.729,14.189h-10.063
						v107.213h10.063c-4.926,5.105-10.529,9.854-16.729,14.188C367.239,352.908,332.99,363.643,295.164,363.643z"/>
					<path clip-path="url(#SVGID_4_)" fill="none" d="M295.164,361.43c-36.953,0-70.414-10.482-94.632-27.435
						c-3.025-2.116-5.907-4.341-8.634-6.649h3.359V208.175h-3.359c2.727-2.309,5.608-4.532,8.634-6.649
						c24.218-16.952,57.679-27.434,94.632-27.434s70.415,10.481,94.632,27.434c6.051,4.239,11.527,8.88,16.342,13.861h-7.445
						v104.748h7.445c-4.814,4.981-10.291,9.621-16.342,13.86C365.579,350.947,332.117,361.43,295.164,361.43z"/>
					<path clip-path="url(#SVGID_4_)" fill="none" d="M295.164,359.223c-36.08,0-68.752-10.237-92.396-26.787
						c-5.913-4.139-11.265-8.671-15.96-13.539h8.449V216.623h-8.449c4.695-4.867,10.047-9.399,15.96-13.537
						c23.644-16.551,56.315-26.788,92.396-26.788c36.086,0,68.751,10.237,92.401,26.788c5.908,4.138,11.258,8.67,15.953,13.537
						h-4.826v102.273h4.826c-4.695,4.868-10.045,9.4-15.953,13.539C363.915,348.985,331.25,359.223,295.164,359.223z"/>
					<path clip-path="url(#SVGID_4_)" fill="none" d="M295.164,358.176c-35.674,0-67.969-10.117-91.344-26.477
						c-5.848-4.09-11.133-8.574-15.773-13.383h7.211V217.203h-7.211c4.641-4.807,9.926-9.291,15.773-13.381
						c23.375-16.361,55.67-26.479,91.344-26.479s67.968,10.117,91.343,26.479c5.848,4.09,11.133,8.574,15.773,13.381h-3.588v101.113
						h3.588c-4.641,4.809-9.926,9.293-15.773,13.383C363.132,348.059,330.838,358.176,295.164,358.176z"/>
					<path clip-path="url(#SVGID_4_)" fill="none" d="M295.164,357.135c-35.262,0-67.186-10.003-90.291-26.178
						c-5.775-4.042-11.002-8.473-15.594-13.227h5.979v-99.94h-5.979c4.592-4.754,9.818-9.185,15.594-13.228
						c23.105-16.174,55.029-26.178,90.291-26.178s67.185,10.004,90.29,26.178c5.781,4.043,11.002,8.474,15.596,13.228h-2.357v99.94
						h2.357c-4.594,4.754-9.814,9.185-15.596,13.227C362.349,347.132,330.426,357.135,295.164,357.135z"/>
					<path clip-path="url(#SVGID_4_)" fill="none" d="M295.164,356.096c-34.85,0-66.396-9.891-89.238-25.873
						c-5.711-4-10.877-8.377-15.408-13.078h4.74v-98.769h-4.74c4.531-4.7,9.697-9.077,15.408-13.077
						c22.842-15.983,54.389-25.873,89.238-25.873c34.848,0,66.401,9.89,89.237,25.873c5.711,4,10.877,8.377,15.416,13.077h-1.125
						v98.769h1.125c-4.539,4.701-9.705,9.078-15.416,13.078C361.565,346.205,330.012,356.096,295.164,356.096z"/>
					<path clip-path="url(#SVGID_4_)" fill="none" d="M295.164,355.056c-34.437,0-65.619-9.771-88.186-25.569
						c-5.645-3.945-10.746-8.275-15.23-12.922h3.51v-97.608h-3.51c4.484-4.646,9.586-8.976,15.23-12.922
						c22.566-15.798,53.749-25.568,88.186-25.568c34.441,0,65.618,9.771,88.185,25.568c5.645,3.946,10.746,8.276,15.23,12.922
						c2.242,2.319,4.322,4.724,6.248,7.192h-6.135v83.223h6.135c-1.926,2.471-4.006,4.874-6.248,7.193
						c-4.484,4.646-9.586,8.977-15.23,12.922C360.782,345.284,329.605,355.056,295.164,355.056z"/>
					<path clip-path="url(#SVGID_4_)" fill="none" d="M295.164,354.009c-34.023,0-64.83-9.657-87.133-25.264
						c-5.574-3.899-10.614-8.174-15.045-12.761h2.271v-96.449h-2.271c4.431-4.586,9.471-8.861,15.045-12.76
						c22.303-15.606,53.109-25.264,87.133-25.264c34.029,0,64.835,9.657,87.134,25.264c11.145,7.803,20.174,17.096,26.404,27.41
						h-10.01v67.149h10.01c-6.23,10.314-15.26,19.606-26.404,27.41C359.999,344.352,329.193,354.009,295.164,354.009z"/>
					<path clip-path="url(#SVGID_4_)" fill="none" d="M295.164,352.969c-33.617,0-64.047-9.539-86.081-24.959
						c-5.501-3.856-10.487-8.078-14.865-12.611h1.04v-95.276h-1.04c4.378-4.532,9.364-8.755,14.865-12.611
						c22.034-15.421,52.464-24.958,86.081-24.958s64.052,9.537,86.079,24.958c11.016,7.708,19.926,16.893,26.09,27.081h-8.641
						v66.336h8.641c-6.164,10.189-15.074,19.375-26.09,27.082C359.216,343.43,328.781,352.969,295.164,352.969z"/>
					<path clip-path="url(#SVGID_4_)" fill="none" d="M295.164,351.922c-33.205,0-63.264-9.418-85.023-24.648
						c-5.44-3.808-10.361-7.977-14.685-12.461c-2.159-2.235-4.175-4.55-6.022-6.936h5.824v-80.232h-5.824
						c1.848-2.387,3.863-4.7,6.022-6.938c4.323-4.484,9.244-8.651,14.685-12.461c21.76-15.229,51.818-24.647,85.023-24.647
						c33.203,0,63.263,9.418,85.028,24.647c10.877,7.618,19.684,16.684,25.766,26.752h-7.266v65.523h7.266
						c-6.082,10.07-14.889,19.135-25.766,26.752C358.427,342.504,328.367,351.922,295.164,351.922z"/>
					<path clip-path="url(#SVGID_4_)" fill="none" d="M295.164,350.881c-32.792,0-62.48-9.303-83.971-24.348
						c-10.745-7.521-19.439-16.474-25.454-26.418h9.519v-64.71h-9.519c6.015-9.944,14.709-18.896,25.454-26.417
						c21.49-15.045,51.179-24.35,83.971-24.35c32.791,0,62.485,9.305,83.976,24.35c10.74,7.521,19.439,16.473,25.449,26.417h-5.896
						v64.71h5.896c-6.01,9.944-14.709,18.896-25.449,26.418C357.649,341.578,327.955,350.881,295.164,350.881z"/>
					<path clip-path="url(#SVGID_4_)" fill="none" d="M295.164,349.84c-32.379,0-61.697-9.189-82.918-24.042
						c-10.613-7.427-19.2-16.271-25.132-26.089h8.144v-63.896h-8.144c5.932-9.818,14.519-18.663,25.132-26.089
						c21.221-14.854,50.539-24.044,82.918-24.044c32.385,0,61.696,9.19,82.917,24.044c10.613,7.426,19.199,16.271,25.133,26.089
						h-4.521v63.896h4.521c-5.934,9.818-14.52,18.662-25.133,26.089C356.86,340.65,327.549,349.84,295.164,349.84z"/>
					<path clip-path="url(#SVGID_4_)" fill="none" d="M295.164,348.795c-31.967,0-60.913-9.071-81.865-23.732
						c-10.477-7.332-18.949-16.061-24.809-25.76h6.768v-63.084h-6.768c5.859-9.699,14.332-18.429,24.809-25.76
						c20.952-14.662,49.898-23.732,81.865-23.732c31.971,0,60.913,9.07,81.864,23.732c10.477,7.331,18.957,16.061,24.809,25.76
						h-3.145v63.084h3.145c-5.852,9.699-14.332,18.428-24.809,25.76C356.077,339.724,327.135,348.795,295.164,348.795z"/>
					<path clip-path="url(#SVGID_4_)" fill="none" d="M295.164,347.754c-31.561,0-60.13-8.951-80.813-23.434
						c-10.34-7.234-18.711-15.857-24.492-25.424h5.398v-62.271h-5.398c5.781-9.567,14.152-18.189,24.492-25.425
						c20.683-14.481,49.252-23.434,80.813-23.434s60.13,8.952,80.812,23.434c10.34,7.235,18.711,15.857,24.492,25.425h-1.775v62.271
						h1.775c-5.781,9.566-14.152,18.189-24.492,25.424C355.294,338.803,326.725,347.754,295.164,347.754z"/>
					<path clip-path="url(#SVGID_4_)" fill="none" d="M295.164,346.707c-31.148,0-59.347-8.838-79.755-23.122
						c-10.207-7.146-18.47-15.647-24.175-25.096h4.023v-61.458h-4.023c5.705-9.447,13.968-17.949,24.175-25.096
						c20.408-14.285,48.606-23.122,79.755-23.122c62.294,0,112.798,35.345,112.798,78.947
						C407.962,311.362,357.458,346.707,295.164,346.707z"/>
					<path clip-path="url(#SVGID_4_)" fill="none" d="M295.164,345.667c-30.734,0-58.563-8.718-78.703-22.817
						c-10.074-7.051-18.225-15.445-23.857-24.768h2.654v-60.644h-2.654c5.633-9.321,13.783-17.718,23.857-24.767
						c20.14-14.101,47.969-22.818,78.703-22.818c61.476,0,111.308,34.879,111.308,77.907S356.64,345.667,295.164,345.667z"/>
					<path clip-path="url(#SVGID_4_)" fill="none" d="M295.164,344.627c-60.65,0-109.813-34.418-109.813-76.866
						s49.163-76.867,109.813-76.867c60.649,0,109.819,34.419,109.819,76.867S355.813,344.627,295.164,344.627z"/>
					<path clip-path="url(#SVGID_4_)" fill="none" d="M295.164,343.581c-59.825,0-108.324-33.946-108.324-75.82
						s48.499-75.82,108.324-75.82c59.831,0,108.323,33.946,108.323,75.82S354.995,343.581,295.164,343.581z"/>
					<ellipse clip-path="url(#SVGID_4_)" fill="none" cx="295.164" cy="267.76" rx="106.836" ry="74.78"/>
					<path clip-path="url(#SVGID_4_)" fill="none" d="M295.164,341.494c-58.181,0-105.348-33.008-105.348-73.733
						c0-40.727,47.167-73.733,105.348-73.733s105.347,33.007,105.347,73.733C400.511,308.486,353.345,341.494,295.164,341.494z"/>
					<path clip-path="url(#SVGID_4_)" fill="none" d="M295.164,340.453c-57.355,0-103.858-32.547-103.858-72.692
						c0-40.147,46.503-72.692,103.858-72.692c57.36,0,103.858,32.545,103.858,72.692
						C399.022,307.906,352.524,340.453,295.164,340.453z"/>
					<ellipse clip-path="url(#SVGID_4_)" fill="none" cx="295.164" cy="267.76" rx="102.369" ry="71.652"/>
					<path clip-path="url(#SVGID_4_)" fill="none" d="M295.164,338.372c-55.711,0-100.874-31.62-100.874-70.611
						c0-38.993,45.163-70.612,100.874-70.612c55.716,0,100.88,31.619,100.88,70.612C396.044,306.752,350.88,338.372,295.164,338.372
						z"/>
					<path clip-path="url(#SVGID_4_)" fill="none" d="M295.164,337.326c-54.893,0-99.386-31.148-99.386-69.565
						c0-38.419,44.493-69.565,99.386-69.565c54.892,0,99.392,31.146,99.392,69.565C394.556,306.178,350.056,337.326,295.164,337.326
						z"/>
					<path clip-path="url(#SVGID_4_)" fill="none" d="M295.164,334.736c-52.848,0-95.684-29.986-95.684-66.976
						s42.836-66.977,95.684-66.977c52.847,0,95.688,29.987,95.688,66.977S348.011,334.736,295.164,334.736z"/>
					<path clip-path="url(#SVGID_4_)" fill="none" d="M295.164,332.147c-50.803,0-91.988-28.827-91.988-64.387
						c0-35.561,41.186-64.388,91.988-64.388c50.801,0,91.987,28.827,91.987,64.388C387.151,303.32,345.965,332.147,295.164,332.147z
						"/>
					<path clip-path="url(#SVGID_4_)" fill="none" d="M295.164,329.559c-48.757,0-88.287-27.673-88.287-61.798
						s39.53-61.798,88.287-61.798c48.756,0,88.286,27.673,88.286,61.798S343.92,329.559,295.164,329.559z"/>
					<ellipse clip-path="url(#SVGID_4_)" fill="none" cx="295.164" cy="267.761" rx="84.586" ry="59.203"/>
					<ellipse clip-path="url(#SVGID_4_)" fill="none" cx="295.164" cy="267.761" rx="80.885" ry="56.614"/>
					<ellipse clip-path="url(#SVGID_4_)" fill="none" cx="295.164" cy="267.761" rx="77.184" ry="54.024"/>
					<ellipse clip-path="url(#SVGID_4_)" fill="none" cx="295.164" cy="267.76" rx="73.482" ry="51.435"/>
					<path clip-path="url(#SVGID_4_)" fill="none" d="M295.164,316.606c-38.538,0-69.781-21.872-69.781-48.846
						s31.243-48.847,69.781-48.847c38.543,0,69.786,21.873,69.786,48.847S333.707,316.606,295.164,316.606z"/>
					<path clip-path="url(#SVGID_4_)" fill="none" d="M295.164,314.012c-36.498,0-66.08-20.707-66.08-46.251
						c0-25.545,29.582-46.252,66.08-46.252s66.085,20.707,66.085,46.252C361.249,293.305,331.662,314.012,295.164,314.012z"/>
					<path clip-path="url(#SVGID_4_)" fill="none" d="M295.164,311.422c-34.454,0-62.379-19.546-62.379-43.661
						s27.925-43.663,62.379-43.663c34.453,0,62.384,19.548,62.384,43.663S329.617,311.422,295.164,311.422z"/>
					<ellipse clip-path="url(#SVGID_4_)" fill="none" cx="295.164" cy="267.76" rx="58.684" ry="41.073"/>
					<path clip-path="url(#SVGID_4_)" fill="none" d="M295.164,306.244c-30.363,0-54.982-17.227-54.982-38.483
						s24.619-38.484,54.982-38.484s54.981,17.228,54.981,38.484S325.527,306.244,295.164,306.244z"/>
					<path clip-path="url(#SVGID_4_)" fill="none" d="M295.164,303.656c-28.32,0-51.281-16.074-51.281-35.896
						c0-19.823,22.961-35.896,51.281-35.896c28.318,0,51.279,16.072,51.279,35.896C346.443,287.582,323.482,303.656,295.164,303.656
						z"/>
					<path clip-path="url(#SVGID_4_)" fill="none" d="M295.164,301.061c-26.273,0-47.579-14.907-47.579-33.3
						c0-18.394,21.306-33.3,47.579-33.3c26.279,0,47.578,14.906,47.578,33.3C342.742,286.153,321.443,301.061,295.164,301.061z"/>
					<path clip-path="url(#SVGID_4_)" fill="none" d="M295.164,298.471c-24.236,0-43.877-13.746-43.877-30.71
						s19.641-30.712,43.877-30.712c24.234,0,43.877,13.748,43.877,30.712S319.398,298.471,295.164,298.471z"/>
					<path clip-path="url(#SVGID_4_)" fill="none" d="M295.164,295.883c-22.189,0-40.176-12.594-40.176-28.122
						s17.986-28.122,40.176-28.122s40.182,12.594,40.182,28.122S317.354,295.883,295.164,295.883z"/>
					<ellipse clip-path="url(#SVGID_4_)" fill="none" cx="295.164" cy="267.76" rx="36.477" ry="25.533"/>
				</g>
			</g>
			
				<radialGradient id="SVGID_5_" cx="286.356" cy="151.0327" r="199.5064" gradientTransform="matrix(0.7197 0 0 0.6126 90.3027 109.4907)" gradientUnits="userSpaceOnUse">
				<stop  offset="0" style="stop-color:#FFFFFF"/>
				<stop  offset="0.5607" style="stop-color:#E8E8E7"/>
				<stop  offset="0.7913" style="stop-color:#DFDFDE"/>
				<stop  offset="1" style="stop-color:#D0D4D8"/>
			</radialGradient>
			<path fill="url(#SVGID_5_)" d="M383.284,251.115c0,40.58-38.661,73.469-86.31,73.469c-47.68,0-86.311-32.889-86.311-73.469
				c0-40.576,38.631-73.467,86.311-73.467C344.623,177.648,383.284,210.539,383.284,251.115z"/>
			<linearGradient id="SVGID_6_" gradientUnits="userSpaceOnUse" x1="296.9673" y1="257.0781" x2="296.9673" y2="182.2852">
				<stop  offset="0" style="stop-color:#EAEAE9"/>
				<stop  offset="0.1187" style="stop-color:#EFEFEE"/>
				<stop  offset="0.5638" style="stop-color:#FBFBFB"/>
				<stop  offset="0.9785" style="stop-color:#FFFFFF"/>
			</linearGradient>
			<path fill="url(#SVGID_6_)" d="M359.468,219.68c0,20.656-27.991,37.398-62.493,37.398c-34.536,0-62.508-16.742-62.508-37.398
				c0-20.646,27.972-37.395,62.508-37.395C331.477,182.285,359.468,199.033,359.468,219.68z"/>
		</g>
	</g>
	<g opacity="0.6">
		<linearGradient id="SVGID_7_" gradientUnits="userSpaceOnUse" x1="302.3662" y1="454.1914" x2="306.3662" y2="377.191">
			<stop  offset="0" style="stop-color:#FFFFFF"/>
			<stop  offset="0.4534" style="stop-color:#FDFDFD"/>
			<stop  offset="0.6168" style="stop-color:#F7F6F7"/>
			<stop  offset="0.7332" style="stop-color:#ECEBEC"/>
			<stop  offset="0.8273" style="stop-color:#DCDADD"/>
			<stop  offset="0.9079" style="stop-color:#C7C4C9"/>
			<stop  offset="0.978" style="stop-color:#AEA9B0"/>
			<stop  offset="1" style="stop-color:#A49FA7"/>
		</linearGradient>
		<path opacity="0.6" fill="url(#SVGID_7_)" d="M302.492,374.781c-48.293,0-88.965,32.605-101.219,77H403.71
			C391.456,407.387,350.784,374.781,302.492,374.781z"/>
	</g>
</g>
<g>
	<radialGradient id="SVGID_8_" cx="292.7856" cy="269.6343" r="80.646" gradientUnits="userSpaceOnUse">
		<stop  offset="0" style="stop-color:#FFFFFF"/>
		<stop  offset="0.16" style="stop-color:#DCF1FC"/>
		<stop  offset="0.31" style="stop-color:#A2DDF8"/>
		<stop  offset="0.5" style="stop-color:#00ADEE"/>
		<stop  offset="0.7" style="stop-color:#0073BC"/>
		<stop  offset="1" style="stop-color:#8DD7F7"/>
	</radialGradient>
	<path fill-rule="evenodd" clip-rule="evenodd" fill="url(#SVGID_8_)" d="M296.044,218.953c2.25,30.499,19.813,44.672,29.879,61.972
		c3.785,6.508,6.961,13.624,6.932,21.727c-0.07,20.486-16.742,37.043-37.229,36.971c-20.486-0.07-37.043-16.741-36.973-37.229
		c0.029-7.921,3.07-14.914,6.793-21.269C274.427,265.796,290.216,251.491,296.044,218.953z"/>
	
		<radialGradient id="SVGID_9_" cx="278.8774" cy="289.936" r="64.8476" gradientTransform="matrix(1.4688 0 0 1 -114.5986 0)" gradientUnits="userSpaceOnUse">
		<stop  offset="0" style="stop-color:#FFFFFF"/>
		<stop  offset="0.42" style="stop-color:#DCF1FC"/>
		<stop  offset="1" style="stop-color:#8DD7F7"/>
	</radialGradient>
	<path fill-rule="evenodd" clip-rule="evenodd" fill="url(#SVGID_9_)" d="M295.225,227.714l21.606,50.725
		c2.363,5.549,5.032,11.15,5.013,17.78c-0.052,16.769-12.108,30.32-26.921,30.261c-14.814-0.057-26.785-13.702-26.734-30.471
		c0.021-6.483,2.559-12,4.911-17.408L295.225,227.714z"/>
	<linearGradient id="SVGID_10_" gradientUnits="userSpaceOnUse" x1="297.6709" y1="338.2412" x2="295.2497" y2="292.042">
		<stop  offset="0" style="stop-color:#8DD7F7"/>
		<stop  offset="0.3" style="stop-color:#0073BC"/>
		<stop  offset="1" style="stop-color:#FFFFFF"/>
	</linearGradient>
	<path fill-rule="evenodd" clip-rule="evenodd" fill="url(#SVGID_10_)" d="M296.307,330.785c12.686,0,26.091-6.831,26.091-3.866
		c0,2.963-12.801,10.99-25.486,10.99s-25.125-7.516-25.125-10.479S283.621,330.785,296.307,330.785z"/>
</g>
<g>
	<g opacity="0.6">
		<linearGradient id="SVGID_11_" gradientUnits="userSpaceOnUse" x1="300.2393" y1="192.6636" x2="300.7497" y2="182.8369">
			<stop  offset="0" style="stop-color:#FFFFFF"/>
			<stop  offset="0.4534" style="stop-color:#FDFDFD"/>
			<stop  offset="0.6168" style="stop-color:#F7F6F7"/>
			<stop  offset="0.7332" style="stop-color:#ECEBEC"/>
			<stop  offset="0.8273" style="stop-color:#DCDADD"/>
			<stop  offset="0.9079" style="stop-color:#C7C4C9"/>
			<stop  offset="0.978" style="stop-color:#AEA9B0"/>
			<stop  offset="1" style="stop-color:#A49FA7"/>
		</linearGradient>
		<path opacity="0.6" fill="url(#SVGID_11_)" d="M199.273,187.781H401.71"/>
	</g>
</g>
</svg>
