<?xml version="1.0" encoding="utf-8"?>
<!-- Generator: Adobe Illustrator 16.0.0, SVG Export Plug-In . SVG Version: 6.00 Build 0)  -->
<!DOCTYPE svg PUBLIC "-//W3C//DTD SVG 1.1//EN" "http://www.w3.org/Graphics/SVG/1.1/DTD/svg11.dtd">
<svg version="1.1" id="Layer_1" xmlns="http://www.w3.org/2000/svg" xmlns:xlink="http://www.w3.org/1999/xlink" x="0px" y="0px"
	 width="595.279px" height="595.279px" viewBox="0 0 595.279 595.279" enable-background="new 0 0 595.279 595.279"
	 xml:space="preserve">
<g>
	<g>
		<ellipse fill="#FACE95" cx="124.5" cy="255.25" rx="64.5" ry="64.25"/>
		<ellipse fill="#EA2E1F" cx="124.25" cy="255.57" rx="35.25" ry="35.57"/>
	</g>
	<g>
		<ellipse fill="#FACE95" cx="470.501" cy="255.25" rx="64.5" ry="64.25"/>
		<ellipse fill="#EA2E1F" cx="470.251" cy="255.57" rx="35.25" ry="35.57"/>
	</g>
	<ellipse fill="#662F09" cx="300.192" cy="254.99" rx="184.848" ry="185.354"/>
	<path fill="#EAA253" d="M429.332,222.667c0-43.078-34.922-78-78-78c-20.454,0-39.063,7.886-52.976,20.77
		c-14.02-13.473-33.047-21.77-54.023-21.77c-43.078,0-78,34.922-78,78c0,29.813,16.733,55.712,41.315,68.839
		c-8.899,16.207-13.982,34.908-13.982,54.828c0,61.854,48.951,112,109.333,112c60.383,0,109.333-50.146,109.333-112
		c0-21.563-5.953-41.701-16.264-58.789C416.177,272.436,429.332,249.095,429.332,222.667z"/>
	<g>
		<circle fill="#F7683C" cx="237.667" cy="227.669" r="49.667"/>
		<circle fill="#3E1D1D" cx="237.667" cy="227.336" r="33.333"/>
		<g>
			<path fill="#762E34" d="M256.158,215.39c-0.037,0.027-0.074,0.055-0.111,0.081c1.029,2.054,1.621,4.346,1.621,6.776
				c0,8.702-7.351,15.756-16.418,15.756c-9.066,0-16.416-7.054-16.416-15.756s7.35-15.755,16.416-15.755
				c2.867,0,5.549,0.725,7.895,1.966c0.005-0.008,0.011-0.018,0.018-0.024c-3.333-2.061-7.269-3.265-11.493-3.265
				c-11.966,0-21.667,9.552-21.667,21.333c0,11.782,9.7,21.333,21.667,21.333s21.667-9.551,21.667-21.333
				C259.334,222.43,258.17,218.627,256.158,215.39z"/>
		</g>
		<ellipse fill="#F7F0F1" cx="253.583" cy="223.001" rx="9.083" ry="8.499"/>
	</g>
	<g>
		<circle fill="#F7683C" cx="364.666" cy="222.669" r="49.667"/>
		<circle fill="#3E1D1D" cx="364.666" cy="222.336" r="33.333"/>
		<g>
			<path fill="#762E34" d="M383.157,210.39c-0.037,0.027-0.072,0.055-0.109,0.081c1.027,2.054,1.621,4.346,1.621,6.776
				c0,8.702-7.352,15.756-16.418,15.756s-16.416-7.054-16.416-15.756s7.35-15.755,16.416-15.755c2.865,0,5.549,0.725,7.894,1.966
				c0.005-0.008,0.011-0.018,0.017-0.024c-3.333-2.061-7.268-3.265-11.491-3.265c-11.968,0-21.667,9.552-21.667,21.333
				c0,11.782,9.699,21.333,21.667,21.333c11.966,0,21.667-9.551,21.667-21.333C386.335,217.43,385.171,213.627,383.157,210.39z"/>
		</g>
		<ellipse fill="#F7F0F1" cx="380.582" cy="218.001" rx="9.085" ry="8.499"/>
	</g>
	<ellipse fill="#F7683C" cx="307.916" cy="308.75" rx="20.585" ry="8.25"/>
	<ellipse fill="#EA2E1F" cx="307.876" cy="391" rx="13.472" ry="26"/>
	<path fill="#662F09" d="M104,101"/>
	<path fill="#662F09" d="M209.958,92.906C254.93,40.783,257.35,1.035,254.93,40.783c-2.421,39.747-60.946,87.53-2.421,39.747
		c58.526-47.783,66.517-96.294,58.526-47.783c-7.988,48.51-62.198,94.397-11.274,47.895c50.922-46.505,72.337-101.013,50.922-46.505
		c-21.416,54.506,95.25-48.18,52.269,11.756c-43.609,60.813-101.263,41.619-17.424,47.543c83.84,5.924,0.979,13.232,0.979,13.232"/>
</g>
<polyline fill="none" points="579.841,488.14 580.35,580.672 9.476,580.672 8.966,488.14 "/>
</svg>
