<?xml version="1.0" encoding="utf-8"?>
<!-- Generator: Adobe Illustrator 16.0.0, SVG Export Plug-In . SVG Version: 6.00 Build 0)  -->
<!DOCTYPE svg PUBLIC "-//W3C//DTD SVG 1.1//EN" "http://www.w3.org/Graphics/SVG/1.1/DTD/svg11.dtd">
<svg version="1.1" id="Layer_1" xmlns="http://www.w3.org/2000/svg" xmlns:xlink="http://www.w3.org/1999/xlink" x="0px" y="0px"
	 width="595.28px" height="595.28px" viewBox="0 0 595.28 595.28" enable-background="new 0 0 595.28 595.28" xml:space="preserve">
<g>
	<g>
		<ellipse fill="#FACE95" cx="124.5" cy="255.25" rx="64.5" ry="64.25"/>
		<ellipse fill="#EA2E1F" cx="124.25" cy="255.57" rx="35.25" ry="35.57"/>
	</g>
	<g>
		<ellipse fill="#FACE95" cx="470.5" cy="255.25" rx="64.5" ry="64.25"/>
		<ellipse fill="#EA2E1F" cx="470.25" cy="255.57" rx="35.25" ry="35.57"/>
	</g>
	<ellipse fill="#662F09" cx="300.192" cy="254.99" rx="184.848" ry="185.354"/>
	<path fill="#EAA253" d="M429.333,222.667c0-43.078-34.922-78-78-78c-20.456,0-39.063,7.885-52.976,20.769
		c-14.019-13.472-33.047-21.769-54.024-21.769c-43.078,0-78,34.922-78,78c0,29.814,16.734,55.712,41.316,68.839
		c-8.9,16.207-13.983,34.908-13.983,54.828c0,61.855,48.951,111.999,109.333,111.999s109.334-50.144,109.334-111.999
		c0-21.564-5.955-41.701-16.264-58.789C416.177,272.436,429.333,249.095,429.333,222.667z"/>
	<g>
		<circle fill="#F7683C" cx="237.667" cy="227.669" r="49.667"/>
		<circle fill="#3E1D1D" cx="237.667" cy="227.336" r="33.333"/>
		<g>
			<path fill="#762E34" d="M256.158,215.39c-0.037,0.028-0.074,0.055-0.111,0.081c1.029,2.054,1.621,4.346,1.621,6.777
				c0,8.702-7.35,15.756-16.418,15.756c-9.067,0-16.416-7.054-16.416-15.756s7.349-15.755,16.416-15.755
				c2.867,0,5.549,0.725,7.894,1.966c0.005-0.008,0.011-0.017,0.017-0.025c-3.333-2.06-7.268-3.264-11.493-3.264
				c-11.966,0-21.667,9.551-21.667,21.333s9.7,21.333,21.667,21.333c11.966,0,21.667-9.551,21.667-21.333
				C259.334,222.43,258.17,218.627,256.158,215.39z"/>
		</g>
		<ellipse fill="#F7F0F1" cx="253.583" cy="223.001" rx="9.083" ry="8.499"/>
	</g>
	<g>
		<circle fill="#F7683C" cx="364.667" cy="222.669" r="49.667"/>
		<circle fill="#3E1D1D" cx="364.667" cy="222.336" r="33.333"/>
		<g>
			<path fill="#762E34" d="M383.158,210.39c-0.037,0.028-0.074,0.055-0.111,0.081c1.029,2.054,1.621,4.346,1.621,6.777
				c0,8.702-7.35,15.756-16.418,15.756c-9.066,0-16.416-7.054-16.416-15.756s7.35-15.755,16.416-15.755
				c2.867,0,5.549,0.725,7.894,1.966c0.005-0.008,0.011-0.017,0.017-0.025c-3.333-2.06-7.268-3.264-11.493-3.264
				c-11.966,0-21.667,9.551-21.667,21.333s9.701,21.333,21.667,21.333s21.667-9.551,21.667-21.333
				C386.334,217.43,385.17,213.627,383.158,210.39z"/>
		</g>
		<ellipse fill="#F7F0F1" cx="380.583" cy="218.001" rx="9.083" ry="8.499"/>
	</g>
	<ellipse fill="#F7683C" cx="307.917" cy="308.75" rx="20.583" ry="8.25"/>
	<ellipse fill="#EA2E1F" cx="307.875" cy="391" rx="13.472" ry="26"/>
	<path fill="#662F09" d="M104,101"/>
	<path fill="#662F09" d="M209.958,92.907C254.93,40.783,257.35,1.035,254.93,40.783c-2.42,39.748-60.946,87.531-2.42,39.748
		c58.527-47.784,66.516-96.294,58.527-47.784s-62.199,94.398-11.276,47.894c50.922-46.505,72.337-101.012,50.922-46.505
		c-21.416,54.506,95.25-48.179,52.269,11.756c-43.611,60.813-101.263,41.619-17.424,47.543c83.84,5.924,0.977,13.233,0.977,13.233"
		/>
</g>
<rect x="9.476" y="501.059" fill="none" width="570.874" height="79.612"/>
<text transform="matrix(1 0 0 1 9.5142 547.21)" fill="#603813" stroke="#F2F2F2" stroke-miterlimit="10" font-family="'AngryBirds-Regular'" font-size="72">Pepito Nature Park</text>
</svg>
