<?xml version="1.0" encoding="utf-8"?>
<!-- Generator: Adobe Illustrator 16.0.0, SVG Export Plug-In . SVG Version: 6.00 Build 0)  -->
<!DOCTYPE svg PUBLIC "-//W3C//DTD SVG 1.1//EN" "http://www.w3.org/Graphics/SVG/1.1/DTD/svg11.dtd">
<svg version="1.1" id="Layer_1" xmlns="http://www.w3.org/2000/svg" xmlns:xlink="http://www.w3.org/1999/xlink" x="0px" y="0px"
	 width="595.28px" height="595.28px" viewBox="0 0 595.28 595.28" enable-background="new 0 0 595.28 595.28" xml:space="preserve">
<g>
	<g>
		<ellipse fill="#FACE95" cx="126.5" cy="284.25" rx="64.5" ry="64.25"/>
		<ellipse fill="#EA2E1F" cx="126.25" cy="284.57" rx="35.25" ry="35.57"/>
	</g>
	<g>
		<ellipse fill="#FACE95" cx="472.5" cy="284.25" rx="64.5" ry="64.25"/>
		<ellipse fill="#EA2E1F" cx="472.25" cy="284.57" rx="35.25" ry="35.57"/>
	</g>
	<ellipse fill="#662F09" cx="302.192" cy="283.99" rx="184.848" ry="185.354"/>
	<path fill="#EAA253" d="M431.333,251.667c0-43.078-34.922-78-78-78c-20.456,0-39.063,7.885-52.976,20.769
		c-14.019-13.472-33.047-21.769-54.024-21.769c-43.078,0-78,34.922-78,78c0,29.814,16.734,55.712,41.316,68.839
		c-8.9,16.207-13.983,34.908-13.983,54.828c0,61.855,48.951,111.999,109.333,111.999s109.334-50.144,109.334-111.999
		c0-21.564-5.955-41.701-16.264-58.789C418.177,301.436,431.333,278.095,431.333,251.667z"/>
	<g>
		<circle fill="#F7683C" cx="239.667" cy="256.669" r="49.667"/>
		<circle fill="#3E1D1D" cx="239.667" cy="256.336" r="33.333"/>
		<g>
			<path fill="#762E34" d="M258.158,244.39c-0.037,0.028-0.074,0.055-0.111,0.081c1.029,2.054,1.621,4.346,1.621,6.777
				c0,8.702-7.35,15.756-16.418,15.756c-9.067,0-16.416-7.054-16.416-15.756s7.349-15.755,16.416-15.755
				c2.867,0,5.549,0.725,7.894,1.966c0.005-0.008,0.011-0.017,0.017-0.025c-3.333-2.06-7.268-3.264-11.493-3.264
				c-11.966,0-21.667,9.551-21.667,21.333s9.7,21.333,21.667,21.333c11.966,0,21.667-9.551,21.667-21.333
				C261.334,251.43,260.17,247.627,258.158,244.39z"/>
		</g>
		<ellipse fill="#F7F0F1" cx="255.583" cy="252.001" rx="9.083" ry="8.499"/>
	</g>
	<g>
		<circle fill="#F7683C" cx="366.667" cy="251.669" r="49.667"/>
		<circle fill="#3E1D1D" cx="366.667" cy="251.336" r="33.333"/>
		<g>
			<path fill="#762E34" d="M385.158,239.39c-0.037,0.028-0.074,0.055-0.111,0.081c1.029,2.054,1.621,4.346,1.621,6.777
				c0,8.702-7.35,15.756-16.418,15.756c-9.066,0-16.416-7.054-16.416-15.756s7.35-15.755,16.416-15.755
				c2.867,0,5.549,0.725,7.894,1.966c0.005-0.008,0.011-0.017,0.017-0.025c-3.333-2.06-7.268-3.264-11.493-3.264
				c-11.966,0-21.667,9.551-21.667,21.333s9.701,21.333,21.667,21.333s21.667-9.551,21.667-21.333
				C388.334,246.43,387.17,242.627,385.158,239.39z"/>
		</g>
		<ellipse fill="#F7F0F1" cx="382.583" cy="247.001" rx="9.083" ry="8.499"/>
	</g>
	<ellipse fill="#F7683C" cx="309.917" cy="337.75" rx="20.583" ry="8.25"/>
	<ellipse fill="#EA2E1F" cx="309.875" cy="420" rx="13.472" ry="26"/>
	<path fill="#662F09" d="M106,130"/>
	<path fill="#662F09" d="M211.958,121.907c44.971-52.124,47.391-91.872,44.971-52.124c-2.42,39.748-60.946,87.531-2.42,39.748
		c58.527-47.784,66.516-96.294,58.527-47.784s-62.199,94.398-11.276,47.894c50.922-46.505,72.337-101.012,50.922-46.505
		c-21.416,54.506,95.25-48.179,52.269,11.756c-43.611,60.813-101.263,41.619-17.424,47.543c83.84,5.924,0.977,13.233,0.977,13.233"
		/>
</g>
<rect x="94.008" y="531.668" fill="none" width="411.65" height="79.612"/>
<text transform="matrix(1 0 0 1 109.5679 562.4355)" font-family="'AngryBirds-Regular'" font-size="48">Pepito Nature Park</text>
</svg>
