<?xml version="1.0" encoding="utf-8"?>
<!-- Generator: Adobe Illustrator 16.0.0, SVG Export Plug-In . SVG Version: 6.00 Build 0)  -->
<!DOCTYPE svg PUBLIC "-//W3C//DTD SVG 1.1//EN" "http://www.w3.org/Graphics/SVG/1.1/DTD/svg11.dtd">
<svg version="1.1" id="Layer_1" xmlns="http://www.w3.org/2000/svg" xmlns:xlink="http://www.w3.org/1999/xlink" x="0px" y="0px"
	 width="595.28px" height="595.28px" viewBox="0 0 595.28 595.28" enable-background="new 0 0 595.28 595.28" xml:space="preserve">
<rect x="-0.5" y="0.5" fill="#CA9D70" stroke="#6A3512" stroke-miterlimit="10" width="596" height="595"/>
<g>
	<g>
		<ellipse fill="#FACE95" cx="126.5" cy="284.25" rx="64.5" ry="64.25"/>
		<ellipse fill="#EA2E1F" cx="126.25" cy="284.57" rx="35.25" ry="35.57"/>
	</g>
	<g>
		<ellipse fill="#FACE95" cx="472.5" cy="284.25" rx="64.5" ry="64.25"/>
		<ellipse fill="#EA2E1F" cx="472.25" cy="284.57" rx="35.25" ry="35.57"/>
	</g>
	<ellipse fill="#662F09" cx="302.192" cy="283.99" rx="184.848" ry="185.354"/>
	<path fill="#EAA253" d="M431.333,251.667c0-43.078-34.922-78-78-78c-20.456,0-39.063,7.885-52.976,20.769
		c-14.019-13.472-33.047-21.769-54.024-21.769c-43.078,0-78,34.922-78,78c0,29.814,16.734,55.712,41.316,68.839
		c-8.9,16.207-13.983,34.908-13.983,54.828c0,61.855,48.951,111.999,109.333,111.999s109.334-50.144,109.334-111.999
		c0-21.564-5.955-41.701-16.264-58.789C418.177,301.436,431.333,278.095,431.333,251.667z"/>
	<g>
		<circle fill="#F7683C" cx="239.667" cy="256.669" r="49.667"/>
		<circle fill="#3E1D1D" cx="239.667" cy="256.336" r="33.333"/>
		<g>
			<path fill="#762E34" d="M258.158,244.39c-0.037,0.028-0.074,0.055-0.111,0.081c1.029,2.054,1.621,4.346,1.621,6.777
				c0,8.702-7.35,15.756-16.418,15.756c-9.067,0-16.416-7.054-16.416-15.756s7.349-15.755,16.416-15.755
				c2.867,0,5.549,0.725,7.894,1.966c0.005-0.008,0.011-0.017,0.017-0.025c-3.333-2.06-7.268-3.264-11.493-3.264
				c-11.966,0-21.667,9.551-21.667,21.333s9.7,21.333,21.667,21.333c11.966,0,21.667-9.551,21.667-21.333
				C261.334,251.43,260.17,247.627,258.158,244.39z"/>
		</g>
		<ellipse fill="#F7F0F1" cx="255.583" cy="252.001" rx="9.083" ry="8.499"/>
	</g>
	<g>
		<circle fill="#F7683C" cx="366.667" cy="251.669" r="49.667"/>
		<circle fill="#3E1D1D" cx="366.667" cy="251.336" r="33.333"/>
		<g>
			<path fill="#762E34" d="M385.158,239.39c-0.037,0.028-0.074,0.055-0.111,0.081c1.029,2.054,1.621,4.346,1.621,6.777
				c0,8.702-7.35,15.756-16.418,15.756c-9.066,0-16.416-7.054-16.416-15.756s7.35-15.755,16.416-15.755
				c2.867,0,5.549,0.725,7.894,1.966c0.005-0.008,0.011-0.017,0.017-0.025c-3.333-2.06-7.268-3.264-11.493-3.264
				c-11.966,0-21.667,9.551-21.667,21.333s9.701,21.333,21.667,21.333s21.667-9.551,21.667-21.333
				C388.334,246.43,387.17,242.627,385.158,239.39z"/>
		</g>
		<ellipse fill="#F7F0F1" cx="382.583" cy="247.001" rx="9.083" ry="8.499"/>
	</g>
	<ellipse fill="#F7683C" cx="309.917" cy="337.75" rx="20.583" ry="8.25"/>
	<ellipse fill="#EA2E1F" cx="309.875" cy="420" rx="13.472" ry="26"/>
	<path fill="#662F09" d="M106,130"/>
	<path fill="#662F09" d="M211.958,121.907c44.971-52.124,47.391-91.872,44.971-52.124c-2.42,39.748-60.946,87.531-2.42,39.748
		c58.527-47.784,66.516-96.294,58.527-47.784s-62.199,94.398-11.276,47.894c50.922-46.505,72.337-101.012,50.922-46.505
		c-21.416,54.506,95.25-48.179,52.269,11.756c-43.611,60.813-101.263,41.619-17.424,47.543c83.84,5.924,0.977,13.233,0.977,13.233"
		/>
</g>
<g>
	<radialGradient id="SVGID_1_" cx="151.4092" cy="536.8232" r="21.0173" gradientUnits="userSpaceOnUse">
		<stop  offset="0" style="stop-color:#FFFFFF"/>
		<stop  offset="0.0851" style="stop-color:#FFEDD8"/>
		<stop  offset="0.2082" style="stop-color:#FFD5A7"/>
		<stop  offset="0.3345" style="stop-color:#FFC17D"/>
		<stop  offset="0.462" style="stop-color:#FFB05B"/>
		<stop  offset="0.591" style="stop-color:#FFA340"/>
		<stop  offset="0.7222" style="stop-color:#FF9A2D"/>
		<stop  offset="0.8568" style="stop-color:#FF9522"/>
		<stop  offset="1" style="stop-color:#FF931E"/>
	</radialGradient>
	<linearGradient id="SVGID_2_" gradientUnits="userSpaceOnUse" x1="134.8833" y1="536.8779" x2="167.6543" y2="536.8779">
		<stop  offset="0.8172" style="stop-color:#000000"/>
		<stop  offset="1" style="stop-color:#FFFFFF"/>
	</linearGradient>
	<path fill="url(#SVGID_1_)" stroke="url(#SVGID_2_)" stroke-miterlimit="10" d="M135.664,513.797
		c2.871-0.925,5.954-1.563,9.25-1.918c1.482-0.157,2.916-0.246,4.301-0.266c1.717,0,3.375,0.128,4.974,0.383
		c1.677,0.235,3.199,0.623,4.564,1.163c1.365,0.54,2.536,1.231,3.511,2.076c0.975,0.844,1.731,1.86,2.268,3.048
		s0.805,2.586,0.805,4.195c0,0.488-0.109,1.142-0.328,1.96c-0.219,0.819-0.627,1.727-1.223,2.721
		c-0.597,0.995-1.393,2.063-2.387,3.204c-0.995,1.141-2.248,2.286-3.759,3.437c2.283,1.151,4.093,2.331,5.43,3.54
		c1.336,1.21,2.327,2.39,2.971,3.54c0.644,1.151,1.005,2.271,1.083,3.364c0.019,0.313,0.029,0.614,0.029,0.906
		c0,0.741-0.069,1.434-0.206,2.077c-0.391,1.639-1.339,3.229-2.845,4.77c-1.506,1.54-3.281,2.959-5.324,4.256
		c-2.044,1.298-4.229,2.443-6.557,3.438c-2.328,0.994-4.469,1.775-6.425,2.342c-0.115-0.313-0.254-0.669-0.417-1.069
		c-0.164-0.4-0.34-0.981-0.528-1.741l-3.429,1.199l-1.049-2.224l-2.664,0.761v-35.223l-1.143-1.55l2.758-1.727l-3.34-2.414
		l1.318-1.771L135.664,513.797z M145.022,526.077c0,1.989,0.16,4.31,0.481,6.962c1.449-0.39,2.731-0.857,3.848-1.403
		c1.116-0.547,2.105-1.112,2.967-1.697c0.861-0.585,1.571-1.155,2.129-1.711s0.984-1.049,1.278-1.478
		c0.607-0.956,0.911-1.823,0.911-2.604c0-0.448-0.108-0.857-0.323-1.229c-0.568-1.033-1.449-1.833-2.644-2.398
		c-0.999-0.448-2.164-0.673-3.496-0.673c-0.117,0-0.225,0-0.322,0c-1.465,0.039-3.037,0.459-4.717,1.258
		C145.06,522.431,145.022,524.088,145.022,526.077z M145.431,543.016c-0.049,0.937-0.073,1.97-0.073,3.102
		c0,1.131,0.024,2.369,0.073,3.715c0.048,1.346,0.151,2.691,0.308,4.037c1.527-0.644,3-1.282,4.42-1.916
		c1.42-0.634,2.673-1.341,3.76-2.121c1.087-0.78,1.923-1.658,2.511-2.633c0.509-0.819,0.764-1.735,0.764-2.75
		c0-0.195-0.01-0.409-0.029-0.644c-0.118-1.229-0.617-2.165-1.498-2.809s-1.919-1.053-3.112-1.229
		c-0.568-0.078-1.136-0.117-1.704-0.117c-0.646,0-1.313,0.049-1.998,0.146c-1.293,0.195-2.37,0.497-3.231,0.907
		C145.543,541.31,145.479,542.08,145.431,543.016z"/>
	<radialGradient id="SVGID_3_" cx="186.168" cy="536.4717" r="21.0359" gradientUnits="userSpaceOnUse">
		<stop  offset="0" style="stop-color:#FFFFFF"/>
		<stop  offset="0.0851" style="stop-color:#FFEDD8"/>
		<stop  offset="0.2082" style="stop-color:#FFD5A7"/>
		<stop  offset="0.3345" style="stop-color:#FFC17D"/>
		<stop  offset="0.462" style="stop-color:#FFB05B"/>
		<stop  offset="0.591" style="stop-color:#FFA340"/>
		<stop  offset="0.7222" style="stop-color:#FF9A2D"/>
		<stop  offset="0.8568" style="stop-color:#FF9522"/>
		<stop  offset="1" style="stop-color:#FF931E"/>
	</radialGradient>
	<linearGradient id="SVGID_4_" gradientUnits="userSpaceOnUse" x1="168.6177" y1="536.4531" x2="203.7363" y2="536.4531">
		<stop  offset="0.8172" style="stop-color:#000000"/>
		<stop  offset="1" style="stop-color:#FFFFFF"/>
	</linearGradient>
	<path fill="url(#SVGID_3_)" stroke="url(#SVGID_4_)" stroke-miterlimit="10" d="M169.176,560.422l9.492-46.992l1.201-0.674
		l2.344,2.666l3.896-3.369l3.955,4.863l2.52-4.336h0.352l10.225,46.816l-1.084,0.469L199,555.793l-1.084,3.486l-2.197-1.377
		l-1.201,1.201l-2.285-7.031l-13.975,0.117l-1.758,7.969l-1.553-0.879l-1.025,0.938l-1.143-3.398l-2.871,4.072L169.176,560.422z
		 M179.986,544.982l11.572-0.762l-4.541-19.219l-2.402-0.41L179.986,544.982z"/>
	<radialGradient id="SVGID_5_" cx="221.0186" cy="536.8232" r="21.0173" gradientUnits="userSpaceOnUse">
		<stop  offset="0" style="stop-color:#FFFFFF"/>
		<stop  offset="0.0851" style="stop-color:#FFEDD8"/>
		<stop  offset="0.2082" style="stop-color:#FFD5A7"/>
		<stop  offset="0.3345" style="stop-color:#FFC17D"/>
		<stop  offset="0.462" style="stop-color:#FFB05B"/>
		<stop  offset="0.591" style="stop-color:#FFA340"/>
		<stop  offset="0.7222" style="stop-color:#FF9A2D"/>
		<stop  offset="0.8568" style="stop-color:#FF9522"/>
		<stop  offset="1" style="stop-color:#FF931E"/>
	</radialGradient>
	<linearGradient id="SVGID_6_" gradientUnits="userSpaceOnUse" x1="204.4927" y1="536.8779" x2="237.2637" y2="536.8779">
		<stop  offset="0.8172" style="stop-color:#000000"/>
		<stop  offset="1" style="stop-color:#FFFFFF"/>
	</linearGradient>
	<path fill="url(#SVGID_5_)" stroke="url(#SVGID_6_)" stroke-miterlimit="10" d="M205.273,513.797
		c2.871-0.925,5.954-1.563,9.25-1.918c1.482-0.157,2.916-0.246,4.301-0.266c1.717,0,3.375,0.128,4.974,0.383
		c1.677,0.235,3.199,0.623,4.564,1.163c1.365,0.54,2.536,1.231,3.511,2.076c0.975,0.844,1.731,1.86,2.268,3.048
		s0.805,2.586,0.805,4.195c0,0.488-0.109,1.142-0.328,1.96c-0.219,0.819-0.627,1.727-1.223,2.721
		c-0.597,0.995-1.393,2.063-2.387,3.204c-0.995,1.141-2.248,2.286-3.759,3.437c2.283,1.151,4.093,2.331,5.43,3.54
		c1.336,1.21,2.327,2.39,2.971,3.54c0.644,1.151,1.005,2.271,1.083,3.364c0.019,0.313,0.029,0.614,0.029,0.906
		c0,0.741-0.069,1.434-0.206,2.077c-0.391,1.639-1.339,3.229-2.845,4.77c-1.506,1.54-3.281,2.959-5.324,4.256
		c-2.044,1.298-4.229,2.443-6.557,3.438c-2.328,0.994-4.469,1.775-6.425,2.342c-0.115-0.313-0.254-0.669-0.417-1.069
		c-0.164-0.4-0.34-0.981-0.528-1.741l-3.429,1.199l-1.049-2.224l-2.664,0.761v-35.223l-1.143-1.55l2.758-1.727l-3.34-2.414
		l1.318-1.771L205.273,513.797z M214.632,526.077c0,1.989,0.16,4.31,0.481,6.962c1.449-0.39,2.731-0.857,3.848-1.403
		c1.116-0.547,2.105-1.112,2.967-1.697c0.861-0.585,1.571-1.155,2.129-1.711s0.984-1.049,1.278-1.478
		c0.607-0.956,0.911-1.823,0.911-2.604c0-0.448-0.108-0.857-0.323-1.229c-0.568-1.033-1.449-1.833-2.644-2.398
		c-0.999-0.448-2.164-0.673-3.496-0.673c-0.117,0-0.225,0-0.322,0c-1.465,0.039-3.037,0.459-4.717,1.258
		C214.669,522.431,214.632,524.088,214.632,526.077z M215.04,543.016c-0.049,0.937-0.073,1.97-0.073,3.102
		c0,1.131,0.024,2.369,0.073,3.715c0.048,1.346,0.151,2.691,0.308,4.037c1.527-0.644,3-1.282,4.42-1.916
		c1.42-0.634,2.673-1.341,3.76-2.121c1.087-0.78,1.923-1.658,2.511-2.633c0.509-0.819,0.764-1.735,0.764-2.75
		c0-0.195-0.01-0.409-0.029-0.644c-0.118-1.229-0.617-2.165-1.498-2.809s-1.919-1.053-3.112-1.229
		c-0.568-0.078-1.136-0.117-1.704-0.117c-0.646,0-1.313,0.049-1.998,0.146c-1.293,0.195-2.37,0.497-3.231,0.907
		C215.152,541.31,215.088,542.08,215.04,543.016z"/>
	<radialGradient id="SVGID_7_" cx="254.4004" cy="536.0762" r="20.4618" gradientUnits="userSpaceOnUse">
		<stop  offset="0" style="stop-color:#FFFFFF"/>
		<stop  offset="0.0851" style="stop-color:#FFEDD8"/>
		<stop  offset="0.2082" style="stop-color:#FFD5A7"/>
		<stop  offset="0.3345" style="stop-color:#FFC17D"/>
		<stop  offset="0.462" style="stop-color:#FFB05B"/>
		<stop  offset="0.591" style="stop-color:#FFA340"/>
		<stop  offset="0.7222" style="stop-color:#FF9A2D"/>
		<stop  offset="0.8568" style="stop-color:#FF9522"/>
		<stop  offset="1" style="stop-color:#FF931E"/>
	</radialGradient>
	<linearGradient id="SVGID_8_" gradientUnits="userSpaceOnUse" x1="238.5161" y1="536.0391" x2="270.333" y2="536.0391">
		<stop  offset="0.8172" style="stop-color:#000000"/>
		<stop  offset="1" style="stop-color:#FFFFFF"/>
	</linearGradient>
	<path fill="url(#SVGID_7_)" stroke="url(#SVGID_8_)" stroke-miterlimit="10" d="M239.225,515.422l1.904-0.322l0.498-0.938
		l3.34,2.871v-4.629l1.465-0.059l8.109,18.428l7.594-19.072l1.377-0.264l-0.293,4.922l4.277-3.721l0.645,0.791h1.436l-10.986,25.752
		l0.146,20.156l-1.611-0.381l-1.177,1.084l-2.413-3.545l-2.096,4.219l-1.005-0.117l-0.546-20.156L239.225,515.422z"/>
	<radialGradient id="SVGID_9_" cx="303.8975" cy="536.8232" r="23.1487" gradientUnits="userSpaceOnUse">
		<stop  offset="0" style="stop-color:#FFFFFF"/>
		<stop  offset="0.0851" style="stop-color:#FFEDD8"/>
		<stop  offset="0.2082" style="stop-color:#FFD5A7"/>
		<stop  offset="0.3345" style="stop-color:#FFC17D"/>
		<stop  offset="0.462" style="stop-color:#FFB05B"/>
		<stop  offset="0.591" style="stop-color:#FFA340"/>
		<stop  offset="0.7222" style="stop-color:#FF9A2D"/>
		<stop  offset="0.8568" style="stop-color:#FF9522"/>
		<stop  offset="1" style="stop-color:#FF931E"/>
	</radialGradient>
	<linearGradient id="SVGID_10_" gradientUnits="userSpaceOnUse" x1="281.4839" y1="536.7813" x2="326.4004" y2="536.7813">
		<stop  offset="0.8172" style="stop-color:#000000"/>
		<stop  offset="1" style="stop-color:#FFFFFF"/>
	</linearGradient>
	<path fill="url(#SVGID_9_)" stroke="url(#SVGID_10_)" stroke-miterlimit="10" d="M282.027,560.217l6.357-46.553l1.641,0.293
		l1.436-0.762l1.846,5.625l2.168-4.98l1.787-0.469l6.445,23.643l1.377,0.176l7.061-23.408l1.494,0.732l2.959-2.051l2.109,1.494
		l1.611-0.234l5.449,46.201l-2.08-1.553l-1.348,2.344l-2.754-3.604l-1.377,4.072l-0.85-0.059l-2.813-25.137l-1.377,0.293
		l-7.383,23.994l-0.293,0.146l-2.168-4.98l-1.025,4.658l-0.586-0.059l-6.475-23.32l-1.26-0.059l-3.428,23.994l-0.674-0.293
		l-1.436,0.645l-2.021-3.838l-3.545,3.486L282.027,560.217z"/>
	<radialGradient id="SVGID_11_" cx="343.9102" cy="536.7939" r="20.1453" gradientUnits="userSpaceOnUse">
		<stop  offset="0" style="stop-color:#FFFFFF"/>
		<stop  offset="0.0851" style="stop-color:#FFEDD8"/>
		<stop  offset="0.2082" style="stop-color:#FFD5A7"/>
		<stop  offset="0.3345" style="stop-color:#FFC17D"/>
		<stop  offset="0.462" style="stop-color:#FFB05B"/>
		<stop  offset="0.591" style="stop-color:#FFA340"/>
		<stop  offset="0.7222" style="stop-color:#FF9A2D"/>
		<stop  offset="0.8568" style="stop-color:#FF9522"/>
		<stop  offset="1" style="stop-color:#FF931E"/>
	</radialGradient>
	<linearGradient id="SVGID_12_" gradientUnits="userSpaceOnUse" x1="327.8896" y1="536.7939" x2="359.9297" y2="536.7939">
		<stop  offset="0.8172" style="stop-color:#000000"/>
		<stop  offset="1" style="stop-color:#FFFFFF"/>
	</linearGradient>
	<path fill="url(#SVGID_11_)" stroke="url(#SVGID_12_)" stroke-miterlimit="10" d="M328.404,536.516
		c0.039-1.875,0.141-3.613,0.305-5.215s0.362-2.881,0.594-3.838c0.561-2.559,1.305-4.717,2.233-6.475s2.006-3.208,3.233-4.351
		c1.229-1.143,2.605-1.992,4.134-2.549c1.526-0.557,3.161-0.933,4.901-1.128c0.231-0.02,0.502-0.039,0.812-0.059
		c0.154,0,0.319,0.01,0.493,0.029c0.521,0.02,0.995,0.049,1.421,0.087l0.675,4.223l3.584-1.427l0.934,4.106l3.883-0.962
		c0.824,1.032,1.511,2.098,2.063,3.197c0.553,1.1,0.918,2.35,1.1,3.75c0.361,3.075,0.571,6.149,0.632,9.225
		c0,0.447,0.011,0.886,0.03,1.314c0,2.628-0.158,5.128-0.477,7.501c-0.356,2.766-0.977,5.276-1.858,7.532
		c-0.883,2.255-2.067,4.069-3.554,5.441c-1.547,1.412-3.342,2.403-5.385,2.972c-1.844,0.529-3.658,0.794-5.442,0.794
		c-0.174,0-0.347,0-0.521,0c-1.908-0.059-3.678-0.361-5.307-0.908s-2.818-1.221-3.57-2.021c-1.021-1.035-1.855-2.373-2.501-4.014
		s-1.157-3.418-1.532-5.332c-0.377-1.914-0.631-3.906-0.765-5.977c-0.096-1.543-0.134-3.037-0.114-4.482
		C328.385,537.463,328.385,536.984,328.404,536.516z M336.578,536.971c0,0.331,0,0.662,0,0.993c0,2.104,0.156,4.187,0.47,6.251
		c0.372,2.395,1.087,4.392,2.144,5.988c0.313,0.486,0.861,0.896,1.644,1.227s1.634,0.516,2.554,0.555c0.078,0,0.156,0,0.235,0
		c0.821,0,1.624-0.165,2.407-0.497c0.861-0.369,1.546-1.041,2.055-2.015c1.037-1.947,1.752-4.07,2.144-6.368
		c0.333-1.985,0.499-3.923,0.499-5.813c0-0.292-0.01-0.594-0.029-0.905c-0.059-2.181-0.279-4.196-0.661-6.046
		c-0.382-1.851-0.808-3.311-1.276-4.382c-0.607-1.363-1.391-2.278-2.35-2.746c-0.763-0.389-1.555-0.584-2.377-0.584
		c-0.195,0-0.393,0.01-0.588,0.029c-1.018,0.117-1.98,0.478-2.891,1.081s-1.562,1.285-1.953,2.044
		c-0.527,0.916-0.982,2.4-1.365,4.455C336.857,532.292,336.637,534.537,336.578,536.971z"/>
	<radialGradient id="SVGID_13_" cx="378.2383" cy="536.3105" r="19.79" gradientUnits="userSpaceOnUse">
		<stop  offset="0" style="stop-color:#FFFFFF"/>
		<stop  offset="0.0851" style="stop-color:#FFEDD8"/>
		<stop  offset="0.2082" style="stop-color:#FFD5A7"/>
		<stop  offset="0.3345" style="stop-color:#FFC17D"/>
		<stop  offset="0.462" style="stop-color:#FFB05B"/>
		<stop  offset="0.591" style="stop-color:#FFA340"/>
		<stop  offset="0.7222" style="stop-color:#FF9A2D"/>
		<stop  offset="0.8568" style="stop-color:#FF9522"/>
		<stop  offset="1" style="stop-color:#FF931E"/>
	</radialGradient>
	<linearGradient id="SVGID_14_" gradientUnits="userSpaceOnUse" x1="363.0762" y1="536.2627" x2="393.4023" y2="536.2627">
		<stop  offset="0.8172" style="stop-color:#000000"/>
		<stop  offset="1" style="stop-color:#FFFFFF"/>
	</linearGradient>
	<path fill="url(#SVGID_13_)" stroke="url(#SVGID_14_)" stroke-miterlimit="10" d="M363.59,559.396l0.967-46.26l1.846-0.381
		l3.779,4.336l1.758-4.629l0.703,0.381l11.162,23.145l1.641-0.527l0.126-21.563l1.295,0.85l1.357-1.611l2.179,2.988l2.484-2.988
		l-0.527,46.26l-0.536,0.176l-2.495-4.57l-1.642,4.746l-1.547-0.908l-1.192,0.674l-11.689-24.609l-1.318,0.117l-0.791,24.785
		l-0.82,0.352l-2.168-3.662l-2.168,3.135l-0.908-0.615L363.59,559.396z"/>
	<radialGradient id="SVGID_15_" cx="410.8604" cy="536.6768" r="19.757" gradientUnits="userSpaceOnUse">
		<stop  offset="0" style="stop-color:#FFFFFF"/>
		<stop  offset="0.0851" style="stop-color:#FFEDD8"/>
		<stop  offset="0.2082" style="stop-color:#FFD5A7"/>
		<stop  offset="0.3345" style="stop-color:#FFC17D"/>
		<stop  offset="0.462" style="stop-color:#FFB05B"/>
		<stop  offset="0.591" style="stop-color:#FFA340"/>
		<stop  offset="0.7222" style="stop-color:#FF9A2D"/>
		<stop  offset="0.8568" style="stop-color:#FF9522"/>
		<stop  offset="1" style="stop-color:#FF931E"/>
	</radialGradient>
	<linearGradient id="SVGID_16_" gradientUnits="userSpaceOnUse" x1="396.0117" y1="536.7031" x2="425.8486" y2="536.7031">
		<stop  offset="0.8172" style="stop-color:#000000"/>
		<stop  offset="1" style="stop-color:#FFFFFF"/>
	</linearGradient>
	<path fill="url(#SVGID_15_)" stroke="url(#SVGID_16_)" stroke-miterlimit="10" d="M396.52,560.422l0.908-46.758l1.516,0.352
		l0.658-0.586l2.231,4.131l2.23-4.863l1.304,0.059l-0.146,23.467l12.246-22.969l1.436,1.084l2.461-0.615l-0.703,4.453l3.838-3.252
		l0.703,0.439l-9.229,18.838l8.818,22.91l-0.762,1.084l-4.102-2.9v3.867l-1.553-0.791l-1.436,0.967l-7.998-20.537l-4.248,6.064
		l0.059,14.355l-1.746-0.674l-1.287,0.967l-2.174-2.754l-1.889,3.896L396.52,560.422z"/>
	<radialGradient id="SVGID_17_" cx="438.4551" cy="536.6182" r="18.7574" gradientUnits="userSpaceOnUse">
		<stop  offset="0" style="stop-color:#FFFFFF"/>
		<stop  offset="0.0851" style="stop-color:#FFEDD8"/>
		<stop  offset="0.2082" style="stop-color:#FFD5A7"/>
		<stop  offset="0.3345" style="stop-color:#FFC17D"/>
		<stop  offset="0.462" style="stop-color:#FFB05B"/>
		<stop  offset="0.591" style="stop-color:#FFA340"/>
		<stop  offset="0.7222" style="stop-color:#FF9A2D"/>
		<stop  offset="0.8568" style="stop-color:#FF9522"/>
		<stop  offset="1" style="stop-color:#FF931E"/>
	</radialGradient>
	<linearGradient id="SVGID_18_" gradientUnits="userSpaceOnUse" x1="426.3584" y1="536.6152" x2="450.333" y2="536.6152">
		<stop  offset="0.8172" style="stop-color:#000000"/>
		<stop  offset="1" style="stop-color:#FFFFFF"/>
	</linearGradient>
	<path fill="url(#SVGID_17_)" stroke="url(#SVGID_18_)" stroke-miterlimit="10" d="M427.363,516.066l1.377-0.967l-0.82-1.377
		l20.367-1.201l-0.908,1.26l1.582,1.025l-2.9,1.436l2.959,2.402l-0.557,1.201l-10.547,1.143l-0.293,11.338l11.279-0.41l0.293,1.084
		l-2.402,2.637l2.051,1.201l-0.322,1.26l-10.781,1.494l0.293,13.184l10.869-0.469l0.234,0.85l-3.662,1.494l4.072,1.436l-1.553,2.227
		l0.791,1.26l-13.512,1.143l0.451-2.051l-3.858,0.176l0.169-3.604l-2.703,0.498l0.112-33.779h-1.548l-0.381-1.201l4.125-2.754
		L427.363,516.066z"/>
	<radialGradient id="SVGID_19_" cx="468.9121" cy="536.0762" r="20.4618" gradientUnits="userSpaceOnUse">
		<stop  offset="0" style="stop-color:#FFFFFF"/>
		<stop  offset="0.0851" style="stop-color:#FFEDD8"/>
		<stop  offset="0.2082" style="stop-color:#FFD5A7"/>
		<stop  offset="0.3345" style="stop-color:#FFC17D"/>
		<stop  offset="0.462" style="stop-color:#FFB05B"/>
		<stop  offset="0.591" style="stop-color:#FFA340"/>
		<stop  offset="0.7222" style="stop-color:#FF9A2D"/>
		<stop  offset="0.8568" style="stop-color:#FF9522"/>
		<stop  offset="1" style="stop-color:#FF931E"/>
	</radialGradient>
	<linearGradient id="SVGID_20_" gradientUnits="userSpaceOnUse" x1="453.0283" y1="536.0391" x2="484.8447" y2="536.0391">
		<stop  offset="0.8172" style="stop-color:#000000"/>
		<stop  offset="1" style="stop-color:#FFFFFF"/>
	</linearGradient>
	<path fill="url(#SVGID_19_)" stroke="url(#SVGID_20_)" stroke-miterlimit="10" d="M453.736,515.422l1.904-0.322l0.498-0.938
		l3.34,2.871v-4.629l1.465-0.059l8.109,18.428l7.594-19.072l1.377-0.264l-0.293,4.922l4.277-3.721l0.645,0.791h1.436l-10.986,25.752
		l0.146,20.156l-1.611-0.381l-1.177,1.084l-2.412-3.545l-2.097,4.219l-1.005-0.117l-0.546-20.156L453.736,515.422z"/>
</g>
</svg>
